<svg xmlns="http://www.w3.org/2000/svg" xmlns:xlink="http://www.w3.org/1999/xlink" width="1080" zoomAndPan="magnify" viewBox="0 0 810 809.999993" height="1080" preserveAspectRatio="xMidYMid meet" version="1.0"><defs><g/><clipPath id="4a4c0915ee"><path d="M 534 284.101562 L 644.898438 284.101562 L 644.898438 656.851562 L 534 656.851562 Z M 534 284.101562 " clip-rule="nonzero"/></clipPath><clipPath id="98a20581b1"><path d="M 623 284.101562 L 644.898438 284.101562 L 644.898438 656.851562 L 623 656.851562 Z M 623 284.101562 " clip-rule="nonzero"/></clipPath><clipPath id="6537accdc2"><path d="M 444.570312 349.183594 L 555 349.183594 L 555 656.683594 L 444.570312 656.683594 Z M 444.570312 349.183594 " clip-rule="nonzero"/></clipPath><clipPath id="bf4061558c"><path d="M 554 370 L 623.820312 370 L 623.820312 656.683594 L 554 656.683594 Z M 554 370 " clip-rule="nonzero"/></clipPath><clipPath id="44e871aea9"><path d="M 533 349.183594 L 555 349.183594 L 555 656.683594 L 533 656.683594 Z M 533 349.183594 " clip-rule="nonzero"/></clipPath><clipPath id="ca23cede44"><path d="M 347.382812 409.484375 L 464 409.484375 L 464 656.984375 L 347.382812 656.984375 Z M 347.382812 409.484375 " clip-rule="nonzero"/></clipPath><clipPath id="8df74fa19e"><path d="M 463 431 L 534 431 L 534 656.984375 L 463 656.984375 Z M 463 431 " clip-rule="nonzero"/></clipPath><clipPath id="d581c97ec7"><path d="M 441 410 L 464 410 L 464 656.984375 L 441 656.984375 Z M 441 410 " clip-rule="nonzero"/></clipPath><clipPath id="15c51468c0"><path d="M 256.175781 462.675781 L 371 462.675781 L 371 656.925781 L 256.175781 656.925781 Z M 256.175781 462.675781 " clip-rule="nonzero"/></clipPath><clipPath id="e108b3931b"><path d="M 368 484 L 442.175781 484 L 442.175781 656.925781 L 368 656.925781 Z M 368 484 " clip-rule="nonzero"/></clipPath><clipPath id="a2052a7270"><path d="M 348 463 L 371 463 L 371 656.925781 L 348 656.925781 Z M 348 463 " clip-rule="nonzero"/></clipPath><clipPath id="0fd50d0ac3"><path d="M 164.964844 525.382812 L 279 525.382812 L 279 656.632812 L 164.964844 656.632812 Z M 164.964844 525.382812 " clip-rule="nonzero"/></clipPath><clipPath id="dd20c8e8cc"><path d="M 278 547 L 347.964844 547 L 347.964844 656.632812 L 278 656.632812 Z M 278 547 " clip-rule="nonzero"/></clipPath><clipPath id="ca441c28fa"><path d="M 256 525.382812 L 279 525.382812 L 279 656.632812 L 256 656.632812 Z M 256 525.382812 " clip-rule="nonzero"/></clipPath><clipPath id="89c4315ee2"><path d="M 126.417969 680.007812 L 156.039062 680.007812 L 156.039062 709.632812 L 126.417969 709.632812 Z M 126.417969 680.007812 " clip-rule="nonzero"/></clipPath><clipPath id="20085333e6"><path d="M 141.230469 680.007812 C 133.046875 680.007812 126.417969 686.640625 126.417969 694.820312 C 126.417969 703 133.046875 709.632812 141.230469 709.632812 C 149.410156 709.632812 156.039062 703 156.039062 694.820312 C 156.039062 686.640625 149.410156 680.007812 141.230469 680.007812 " clip-rule="nonzero"/></clipPath><clipPath id="77e6cd3d3f"><path d="M 227.808594 680.007812 L 257.433594 680.007812 L 257.433594 709.632812 L 227.808594 709.632812 Z M 227.808594 680.007812 " clip-rule="nonzero"/></clipPath><clipPath id="656ee5bcab"><path d="M 242.621094 680.007812 C 234.441406 680.007812 227.808594 686.640625 227.808594 694.820312 C 227.808594 703 234.441406 709.632812 242.621094 709.632812 C 250.800781 709.632812 257.433594 703 257.433594 694.820312 C 257.433594 686.640625 250.800781 680.007812 242.621094 680.007812 " clip-rule="nonzero"/></clipPath><clipPath id="e03c1ee2c2"><path d="M 338.515625 680.007812 L 368.140625 680.007812 L 368.140625 709.632812 L 338.515625 709.632812 Z M 338.515625 680.007812 " clip-rule="nonzero"/></clipPath><clipPath id="664f7a3b9c"><path d="M 353.328125 680.007812 C 345.148438 680.007812 338.515625 686.640625 338.515625 694.820312 C 338.515625 703 345.148438 709.632812 353.328125 709.632812 C 361.507812 709.632812 368.140625 703 368.140625 694.820312 C 368.140625 686.640625 361.507812 680.007812 353.328125 680.007812 " clip-rule="nonzero"/></clipPath><clipPath id="a8cd08130d"><path d="M 464.070312 680.007812 L 493.695312 680.007812 L 493.695312 709.632812 L 464.070312 709.632812 Z M 464.070312 680.007812 " clip-rule="nonzero"/></clipPath><clipPath id="6709b83fad"><path d="M 478.882812 680.007812 C 470.703125 680.007812 464.070312 686.640625 464.070312 694.820312 C 464.070312 703 470.703125 709.632812 478.882812 709.632812 C 487.0625 709.632812 493.695312 703 493.695312 694.820312 C 493.695312 686.640625 487.0625 680.007812 478.882812 680.007812 " clip-rule="nonzero"/></clipPath><clipPath id="63bee3cc1c"><path d="M 576.886719 680.007812 L 606.507812 680.007812 L 606.507812 709.632812 L 576.886719 709.632812 Z M 576.886719 680.007812 " clip-rule="nonzero"/></clipPath><clipPath id="6cc7b0997d"><path d="M 591.699219 680.007812 C 583.515625 680.007812 576.886719 686.640625 576.886719 694.820312 C 576.886719 703 583.515625 709.632812 591.699219 709.632812 C 599.878906 709.632812 606.507812 703 606.507812 694.820312 C 606.507812 686.640625 599.878906 680.007812 591.699219 680.007812 " clip-rule="nonzero"/></clipPath></defs><rect x="-81" width="972" fill="#ffffff" y="-80.999999" height="971.999992" fill-opacity="1"/><rect x="-81" width="972" fill="#ffffff" y="-80.999999" height="971.999992" fill-opacity="1"/><rect x="-81" width="972" fill="#ffffff" y="-80.999999" height="971.999992" fill-opacity="1"/><g clip-path="url(#4a4c0915ee)"><path fill="#b976f4" d="M 644.660156 308.3125 L 644.660156 649.441406 C 644.660156 649.929688 644.613281 650.410156 644.519531 650.886719 C 644.425781 651.363281 644.285156 651.828125 644.097656 652.277344 C 643.914062 652.726562 643.683594 653.152344 643.414062 653.558594 C 643.144531 653.964844 642.839844 654.335938 642.496094 654.679688 C 642.152344 655.023438 641.777344 655.332031 641.375 655.601562 C 640.96875 655.871094 640.542969 656.101562 640.09375 656.285156 C 639.644531 656.472656 639.183594 656.613281 638.707031 656.707031 C 638.230469 656.804688 637.75 656.851562 637.261719 656.851562 L 541.53125 656.851562 C 541.042969 656.851562 540.5625 656.804688 540.085938 656.707031 C 539.609375 656.613281 539.148438 656.472656 538.699219 656.285156 C 538.25 656.101562 537.824219 655.871094 537.421875 655.601562 C 537.015625 655.332031 536.640625 655.023438 536.300781 654.679688 C 535.957031 654.335938 535.648438 653.964844 535.378906 653.558594 C 535.109375 653.152344 534.882812 652.726562 534.695312 652.277344 C 534.507812 651.828125 534.367188 651.363281 534.273438 650.886719 C 534.179688 650.410156 534.132812 649.929688 534.132812 649.441406 L 534.132812 291.507812 C 534.132812 291.023438 534.179688 290.539062 534.273438 290.0625 C 534.367188 289.585938 534.507812 289.125 534.695312 288.675781 C 534.882812 288.226562 535.109375 287.796875 535.378906 287.394531 C 535.648438 286.988281 535.957031 286.613281 536.300781 286.269531 C 536.640625 285.925781 537.015625 285.621094 537.421875 285.347656 C 537.824219 285.078125 538.25 284.851562 538.699219 284.664062 C 539.148438 284.480469 539.609375 284.339844 540.085938 284.242188 C 540.5625 284.148438 541.042969 284.101562 541.53125 284.101562 L 620.480469 284.101562 C 621.539062 284.128906 622.5625 284.339844 623.546875 284.734375 C 624.339844 285.113281 625.03125 285.625 625.625 286.269531 L 642.496094 303.074219 C 643.1875 303.769531 643.71875 304.574219 644.09375 305.480469 C 644.46875 306.386719 644.65625 307.332031 644.660156 308.3125 Z M 644.660156 308.3125 " fill-opacity="1" fill-rule="nonzero"/></g><g clip-path="url(#98a20581b1)"><path fill="#a16cd8" d="M 644.660156 305.242188 L 644.660156 656.851562 L 623.546875 656.851562 L 623.546875 284.734375 C 624.339844 285.113281 625.03125 285.625 625.625 286.269531 L 642.496094 303.074219 Z M 644.660156 305.242188 " fill-opacity="1" fill-rule="nonzero"/></g><g clip-path="url(#6537accdc2)"><path fill="#f77591" d="M 554.914062 373.519531 L 554.914062 649.125 C 554.914062 653.179688 551.578125 656.519531 547.527344 656.519531 L 451.957031 656.519531 C 447.902344 656.519531 444.570312 653.179688 444.570312 649.125 L 444.570312 356.742188 C 444.570312 352.6875 447.902344 349.347656 451.957031 349.347656 L 530.773438 349.347656 C 531.851562 349.347656 532.84375 349.621094 533.835938 349.980469 C 534.644531 350.339844 535.367188 350.882812 535.996094 351.511719 L 552.75 368.289062 C 554.101562 369.640625 554.914062 371.535156 554.914062 373.519531 Z M 554.914062 373.519531 " fill-opacity="1" fill-rule="nonzero"/></g><g clip-path="url(#bf4061558c)"><path fill="#0c0c0c" d="M 554.914062 370.453125 L 623.820312 439.445312 L 623.730469 656.519531 L 554.914062 656.519531 Z M 554.914062 370.453125 " fill-opacity="0.0667" fill-rule="nonzero"/></g><g clip-path="url(#44e871aea9)"><path fill="#d86482" d="M 554.914062 370.453125 L 554.914062 656.519531 L 533.835938 656.519531 L 533.835938 349.980469 C 534.644531 350.339844 535.367188 350.882812 535.996094 351.511719 Z M 554.914062 370.453125 " fill-opacity="1" fill-rule="nonzero"/></g><g clip-path="url(#ca23cede44)"><path fill="#fed271" d="M 463.679688 434.867188 L 463.679688 649.214844 C 463.679688 653.476562 460.175781 656.984375 455.914062 656.984375 L 355.417969 656.984375 C 351.15625 656.984375 347.652344 653.476562 347.652344 649.214844 L 347.652344 417.25 C 347.652344 412.988281 351.15625 409.484375 355.417969 409.484375 L 438.296875 409.484375 C 439.433594 409.484375 440.472656 409.765625 441.515625 410.144531 C 442.367188 410.523438 443.03125 411.09375 443.695312 411.757812 L 461.40625 429.375 C 462.828125 430.792969 463.679688 432.785156 463.679688 434.867188 Z M 463.679688 434.867188 " fill-opacity="1" fill-rule="nonzero"/></g><g clip-path="url(#8df74fa19e)"><path fill="#0c0c0c" d="M 463.585938 431.648438 L 533.863281 501.929688 L 533.863281 656.984375 L 463.679688 656.984375 Z M 463.585938 431.648438 " fill-opacity="0.0667" fill-rule="nonzero"/></g><g clip-path="url(#d581c97ec7)"><path fill="#e5b34e" d="M 463.679688 431.648438 L 463.679688 656.984375 L 441.515625 656.984375 L 441.515625 410.144531 C 442.367188 410.523438 443.03125 411.09375 443.695312 411.757812 Z M 463.679688 431.648438 " fill-opacity="1" fill-rule="nonzero"/></g><g clip-path="url(#15c51468c0)"><path fill="#c4c6db" d="M 370.261719 487.597656 L 370.261719 649.300781 C 370.261719 653.484375 366.816406 656.925781 362.628906 656.925781 L 263.847656 656.925781 C 259.65625 656.925781 256.210938 653.484375 256.210938 649.300781 L 256.210938 470.300781 C 256.210938 466.117188 259.65625 462.675781 263.847656 462.675781 L 345.3125 462.675781 C 346.429688 462.675781 347.453125 462.957031 348.476562 463.328125 C 349.3125 463.699219 350.058594 464.257812 350.710938 464.90625 L 368.027344 482.203125 C 369.421875 483.691406 370.261719 485.550781 370.261719 487.597656 Z M 370.261719 487.597656 " fill-opacity="1" fill-rule="nonzero"/></g><g clip-path="url(#e108b3931b)"><path fill="#0c0c0c" d="M 370.261719 484.433594 L 442.136719 556.3125 L 442.136719 656.925781 L 368.863281 656.925781 Z M 370.261719 484.433594 " fill-opacity="0.0667" fill-rule="nonzero"/></g><g clip-path="url(#a2052a7270)"><path fill="#a9adc9" d="M 370.261719 484.433594 L 370.261719 656.925781 L 348.476562 656.925781 L 348.476562 463.328125 C 349.3125 463.699219 350.058594 464.257812 350.710938 464.90625 Z M 370.261719 484.433594 " fill-opacity="1" fill-rule="nonzero"/></g><g clip-path="url(#0fd50d0ac3)"><path fill="#cecece" d="M 278.300781 547.105469 L 278.300781 656.5625 L 164.964844 656.5625 L 164.964844 525.457031 L 256.652344 525.457031 Z M 278.300781 547.105469 " fill-opacity="1" fill-rule="nonzero"/></g><g clip-path="url(#dd20c8e8cc)"><path fill="#0c0c0c" d="M 278.300781 547.105469 L 347.964844 617.242188 L 347.964844 656.5625 L 278.300781 656.5625 Z M 278.300781 547.105469 " fill-opacity="0.0667" fill-rule="nonzero"/></g><g clip-path="url(#ca441c28fa)"><path fill="#b2b2b2" d="M 256.652344 525.457031 L 256.652344 656.5625 L 278.300781 656.5625 L 278.300781 547.105469 Z M 256.652344 525.457031 " fill-opacity="1" fill-rule="nonzero"/></g><path stroke-linecap="butt" transform="matrix(0.750209, -0.00288063, 0.00287981, 0.749994, 121.484133, 655.373531)" fill="none" stroke-linejoin="miter" d="M 0.0024997 3.501994 L 764.78945 3.501919 " stroke="#b976f4" stroke-width="7" stroke-opacity="1" stroke-miterlimit="4"/><g fill="#737373" fill-opacity="1"><g transform="translate(291.542141, 117.242277)"><g><path d="M 12.96875 0.515625 C 10.289062 0.515625 7.84375 -0.117188 5.625 -1.390625 C 3.40625 -2.671875 1.910156 -4.710938 1.140625 -7.515625 C 1.097656 -7.691406 1.078125 -7.789062 1.078125 -7.8125 C 1.078125 -8.289062 1.503906 -8.53125 2.359375 -8.53125 C 3.148438 -8.53125 3.59375 -8.320312 3.6875 -7.90625 C 4.894531 -3.289062 7.988281 -0.984375 12.96875 -0.984375 C 14.988281 -0.984375 17.007812 -1.582031 19.03125 -2.78125 C 21.050781 -3.976562 22.0625 -5.742188 22.0625 -8.078125 C 22.0625 -9.734375 21.054688 -11.039062 19.046875 -12 C 17.546875 -12.71875 15.707031 -13.191406 13.53125 -13.421875 C 12.238281 -13.546875 10.910156 -13.75 9.546875 -14.03125 C 8.179688 -14.3125 6.914062 -14.757812 5.75 -15.375 C 3.132812 -16.757812 1.828125 -18.882812 1.828125 -21.75 C 1.828125 -24.570312 3.113281 -26.59375 5.6875 -27.8125 C 8.269531 -29.039062 10.734375 -29.65625 13.078125 -29.65625 C 15.410156 -29.65625 17.625 -29.097656 19.71875 -27.984375 C 21.820312 -26.867188 23.179688 -25.078125 23.796875 -22.609375 C 23.835938 -22.398438 23.859375 -22.300781 23.859375 -22.3125 C 23.859375 -21.84375 23.421875 -21.609375 22.546875 -21.609375 C 21.785156 -21.609375 21.347656 -21.820312 21.234375 -22.25 C 20.304688 -26.1875 17.585938 -28.15625 13.078125 -28.15625 C 11.191406 -28.15625 9.285156 -27.640625 7.359375 -26.609375 C 5.429688 -25.585938 4.46875 -23.96875 4.46875 -21.75 C 4.46875 -20.144531 5.578125 -18.863281 7.796875 -17.90625 C 9.453125 -17.175781 11.425781 -16.695312 13.71875 -16.46875 C 15.039062 -16.332031 16.414062 -16.113281 17.84375 -15.8125 C 19.28125 -15.507812 20.554688 -14.992188 21.671875 -14.265625 C 23.691406 -12.929688 24.703125 -10.867188 24.703125 -8.078125 C 24.703125 -5.140625 23.375 -2.972656 20.71875 -1.578125 C 18.070312 -0.179688 15.488281 0.515625 12.96875 0.515625 Z M 12.96875 0.515625 "/></g></g></g><g fill="#737373" fill-opacity="1"><g transform="translate(317.30508, 117.242277)"><g><path d="M 11.921875 -21.484375 C 15.097656 -21.484375 17.695312 -20.460938 19.71875 -18.421875 C 21.75 -16.390625 22.765625 -13.742188 22.765625 -10.484375 C 22.765625 -7.210938 21.75 -4.5625 19.71875 -2.53125 C 17.695312 -0.5 15.097656 0.515625 11.921875 0.515625 C 8.742188 0.515625 6.140625 -0.5 4.109375 -2.53125 C 2.085938 -4.5625 1.078125 -7.210938 1.078125 -10.484375 C 1.078125 -13.742188 2.085938 -16.390625 4.109375 -18.421875 C 6.140625 -20.460938 8.742188 -21.484375 11.921875 -21.484375 Z M 11.921875 -19.96875 C 9.328125 -19.96875 7.3125 -19.007812 5.875 -17.09375 C 4.4375 -15.175781 3.71875 -12.972656 3.71875 -10.484375 C 3.71875 -8.003906 4.4375 -5.800781 5.875 -3.875 C 7.3125 -1.945312 9.328125 -0.984375 11.921875 -0.984375 C 14.523438 -0.984375 16.539062 -1.945312 17.96875 -3.875 C 19.40625 -5.800781 20.125 -8.003906 20.125 -10.484375 C 20.125 -12.972656 19.40625 -15.175781 17.96875 -17.09375 C 16.539062 -19.007812 14.523438 -19.96875 11.921875 -19.96875 Z M 11.921875 -19.96875 "/></g></g></g><g fill="#737373" fill-opacity="1"><g transform="translate(341.135797, 117.242277)"><g><path d="M 21.34375 -6.265625 C 21.34375 -5.191406 20.785156 -4.023438 19.671875 -2.765625 C 17.734375 -0.578125 15.054688 0.515625 11.640625 0.515625 C 4.597656 0.515625 1.078125 -3.113281 1.078125 -10.375 C 1.078125 -13.613281 2.050781 -16.273438 4 -18.359375 C 5.945312 -20.441406 8.554688 -21.484375 11.828125 -21.484375 C 15.648438 -21.484375 18.441406 -20.191406 20.203125 -17.609375 C 20.941406 -16.566406 21.3125 -15.585938 21.3125 -14.671875 C 21.3125 -14.179688 20.875 -13.9375 20 -13.9375 C 19.175781 -13.9375 18.738281 -14.164062 18.6875 -14.625 C 18.1875 -18.1875 15.898438 -19.96875 11.828125 -19.96875 C 9.109375 -19.96875 7.078125 -19 5.734375 -17.0625 C 4.390625 -15.125 3.71875 -12.910156 3.71875 -10.421875 C 3.71875 -7.941406 4.359375 -5.75 5.640625 -3.84375 C 6.929688 -1.9375 8.929688 -0.984375 11.640625 -0.984375 C 15.722656 -0.984375 18.085938 -2.765625 18.734375 -6.328125 C 18.796875 -6.785156 19.226562 -7.015625 20.03125 -7.015625 C 20.90625 -7.015625 21.34375 -6.765625 21.34375 -6.265625 Z M 21.34375 -6.265625 "/></g></g></g><g fill="#737373" fill-opacity="1"><g transform="translate(363.549554, 117.242277)"><g><path d="M 3.21875 -24.546875 C 2.144531 -24.546875 1.609375 -25.082031 1.609375 -26.15625 C 1.609375 -27.226562 2.144531 -27.765625 3.21875 -27.765625 C 4.289062 -27.765625 4.828125 -27.226562 4.828125 -26.15625 C 4.828125 -25.082031 4.289062 -24.546875 3.21875 -24.546875 Z M 3.21875 0.515625 C 2.332031 0.515625 1.890625 0.265625 1.890625 -0.234375 L 1.890625 -20.71875 C 1.890625 -21.226562 2.332031 -21.484375 3.21875 -21.484375 C 4.101562 -21.484375 4.546875 -21.226562 4.546875 -20.71875 L 4.546875 -0.234375 C 4.546875 0.265625 4.101562 0.515625 3.21875 0.515625 Z M 3.21875 0.515625 "/></g></g></g><g fill="#737373" fill-opacity="1"><g transform="translate(369.990288, 117.242277)"><g><path d="M 21.03125 0.515625 C 20.664062 0.515625 20.347656 0.4375 20.078125 0.28125 C 18.890625 -0.414062 18.175781 -1.46875 17.9375 -2.875 C 16.019531 -0.613281 13.285156 0.515625 9.734375 0.515625 C 7.910156 0.515625 6.097656 0.0625 4.296875 -0.84375 C 2.503906 -1.757812 1.609375 -3.316406 1.609375 -5.515625 C 1.609375 -8.054688 2.535156 -9.65625 4.390625 -10.3125 C 6.242188 -10.976562 8.160156 -11.3125 10.140625 -11.3125 C 10.640625 -11.3125 11.175781 -11.289062 11.75 -11.25 C 12.332031 -11.21875 12.921875 -11.203125 13.515625 -11.203125 C 15.390625 -11.203125 16.789062 -11.503906 17.71875 -12.109375 L 17.71875 -14.4375 C 17.71875 -18.101562 15.578125 -19.945312 11.296875 -19.96875 C 9.640625 -19.96875 8.191406 -19.554688 6.953125 -18.734375 C 5.578125 -17.785156 4.882812 -16.675781 4.875 -15.40625 C 4.875 -14.894531 4.429688 -14.640625 3.546875 -14.640625 C 2.679688 -14.640625 2.25 -14.894531 2.25 -15.40625 C 2.269531 -17.0625 3.164062 -18.488281 4.9375 -19.6875 C 6.65625 -20.882812 8.773438 -21.484375 11.296875 -21.484375 C 13.472656 -21.484375 15.523438 -20.9375 17.453125 -19.84375 C 19.390625 -18.757812 20.359375 -16.957031 20.359375 -14.4375 L 20.359375 -4.765625 C 20.359375 -2.734375 20.90625 -1.394531 22 -0.75 C 22.238281 -0.601562 22.359375 -0.429688 22.359375 -0.234375 C 22.359375 -0.0351562 22.222656 0.140625 21.953125 0.296875 C 21.660156 0.441406 21.351562 0.515625 21.03125 0.515625 Z M 9.734375 -1.015625 C 11.492188 -1.015625 13.265625 -1.585938 15.046875 -2.734375 C 16.828125 -3.890625 17.71875 -5.488281 17.71875 -7.53125 L 17.71875 -10.140625 C 16.488281 -9.867188 15.15625 -9.734375 13.71875 -9.734375 C 13.101562 -9.734375 12.476562 -9.742188 11.84375 -9.765625 C 11.21875 -9.796875 10.59375 -9.8125 9.96875 -9.8125 C 6.15625 -9.8125 4.25 -8.378906 4.25 -5.515625 C 4.25 -2.515625 6.078125 -1.015625 9.734375 -1.015625 Z M 9.734375 -1.015625 "/></g></g></g><g fill="#737373" fill-opacity="1"><g transform="translate(392.876365, 117.242277)"><g><path d="M 2.921875 0.5625 C 2.046875 0.5625 1.609375 0.300781 1.609375 -0.21875 L 1.609375 -28.90625 C 1.609375 -29.40625 2.046875 -29.65625 2.921875 -29.65625 C 3.804688 -29.65625 4.25 -29.40625 4.25 -28.90625 L 4.25 -0.21875 C 4.25 0.300781 3.804688 0.5625 2.921875 0.5625 Z M 2.921875 0.5625 "/></g></g></g><g fill="#737373" fill-opacity="1"><g transform="translate(398.737434, 117.242277)"><g/></g></g><g fill="#737373" fill-opacity="1"><g transform="translate(409.471991, 117.242277)"><g><path d="M 16.28125 0.515625 C 15.4375 0.515625 14.925781 0.320312 14.75 -0.0625 L 3.828125 -25.1875 L 3.828125 0.125 C 3.828125 0.375 3.546875 0.5 2.984375 0.5 C 2.421875 0.5 2.140625 0.375 2.140625 0.125 L 2.140625 -28.90625 C 2.140625 -29.40625 2.710938 -29.65625 3.859375 -29.65625 C 4.617188 -29.65625 5.078125 -29.46875 5.234375 -29.09375 L 16.875 -2.28125 L 27.515625 -29.125 C 27.648438 -29.476562 28.117188 -29.65625 28.921875 -29.65625 C 29.816406 -29.65625 30.265625 -29.40625 30.265625 -28.90625 L 30.265625 -0.21875 C 30.265625 0.257812 29.828125 0.5 28.953125 0.5 C 28.066406 0.5 27.625 0.257812 27.625 -0.21875 L 27.625 -25.046875 L 17.765625 -0.046875 C 17.617188 0.328125 17.125 0.515625 16.28125 0.515625 Z M 16.28125 0.515625 "/></g></g></g><g fill="#737373" fill-opacity="1"><g transform="translate(441.868886, 117.242277)"><g><path d="M 11.828125 0.515625 C 4.660156 0.515625 1.078125 -3.082031 1.078125 -10.28125 C 1.078125 -13.507812 2.078125 -16.179688 4.078125 -18.296875 C 6.085938 -20.421875 8.722656 -21.484375 11.984375 -21.484375 C 19.128906 -21.484375 22.703125 -18.128906 22.703125 -11.421875 C 22.703125 -10.921875 22.265625 -10.671875 21.390625 -10.671875 L 3.71875 -10.671875 C 3.71875 -8.222656 4.394531 -5.992188 5.75 -3.984375 C 7.101562 -1.984375 9.128906 -0.984375 11.828125 -0.984375 C 13.765625 -0.984375 15.503906 -1.507812 17.046875 -2.5625 C 18.628906 -3.632812 19.5 -4.890625 19.65625 -6.328125 C 19.707031 -6.804688 20.144531 -7.046875 20.96875 -7.046875 C 21.851562 -7.046875 22.296875 -6.800781 22.296875 -6.3125 C 22.296875 -5.851562 22.128906 -5.28125 21.796875 -4.59375 C 21.265625 -3.46875 20.363281 -2.46875 19.09375 -1.59375 C 17.039062 -0.1875 14.617188 0.515625 11.828125 0.515625 Z M 20.0625 -12.171875 C 19.65625 -17.367188 16.960938 -19.96875 11.984375 -19.96875 C 7.535156 -19.96875 4.828125 -17.367188 3.859375 -12.171875 Z M 20.0625 -12.171875 "/></g></g></g><g fill="#737373" fill-opacity="1"><g transform="translate(465.635197, 117.242277)"><g><path d="M 20.015625 0.515625 C 19.140625 0.515625 18.703125 0.265625 18.703125 -0.234375 L 18.703125 -3.25 C 17.253906 -0.75 14.753906 0.5 11.203125 0.5 C 8.066406 0.5 5.59375 -0.5625 3.78125 -2.6875 C 1.976562 -4.820312 1.078125 -7.425781 1.078125 -10.5 C 1.078125 -13.59375 1.976562 -16.203125 3.78125 -18.328125 C 5.59375 -20.453125 8.066406 -21.515625 11.203125 -21.515625 C 14.617188 -21.515625 17.117188 -20.269531 18.703125 -17.78125 L 18.703125 -28.921875 C 18.703125 -29.429688 19.140625 -29.6875 20.015625 -29.6875 C 20.898438 -29.6875 21.34375 -29.429688 21.34375 -28.921875 L 21.34375 -0.234375 C 21.34375 0.265625 20.898438 0.515625 20.015625 0.515625 Z M 11.203125 -1.015625 C 13.710938 -1.015625 15.585938 -2.03125 16.828125 -4.0625 C 18.078125 -6.09375 18.703125 -8.238281 18.703125 -10.5 C 18.703125 -12.78125 18.078125 -14.9375 16.828125 -16.96875 C 15.585938 -19 13.710938 -20.015625 11.203125 -20.015625 C 8.703125 -20.015625 6.828125 -19 5.578125 -16.96875 C 4.335938 -14.9375 3.71875 -12.78125 3.71875 -10.5 C 3.71875 -8.238281 4.335938 -6.09375 5.578125 -4.0625 C 6.828125 -2.03125 8.703125 -1.015625 11.203125 -1.015625 Z M 11.203125 -1.015625 "/></g></g></g><g fill="#737373" fill-opacity="1"><g transform="translate(489.122409, 117.242277)"><g><path d="M 3.21875 -24.546875 C 2.144531 -24.546875 1.609375 -25.082031 1.609375 -26.15625 C 1.609375 -27.226562 2.144531 -27.765625 3.21875 -27.765625 C 4.289062 -27.765625 4.828125 -27.226562 4.828125 -26.15625 C 4.828125 -25.082031 4.289062 -24.546875 3.21875 -24.546875 Z M 3.21875 0.515625 C 2.332031 0.515625 1.890625 0.265625 1.890625 -0.234375 L 1.890625 -20.71875 C 1.890625 -21.226562 2.332031 -21.484375 3.21875 -21.484375 C 4.101562 -21.484375 4.546875 -21.226562 4.546875 -20.71875 L 4.546875 -0.234375 C 4.546875 0.265625 4.101562 0.515625 3.21875 0.515625 Z M 3.21875 0.515625 "/></g></g></g><g fill="#737373" fill-opacity="1"><g transform="translate(495.563143, 117.242277)"><g><path d="M 21.03125 0.515625 C 20.664062 0.515625 20.347656 0.4375 20.078125 0.28125 C 18.890625 -0.414062 18.175781 -1.46875 17.9375 -2.875 C 16.019531 -0.613281 13.285156 0.515625 9.734375 0.515625 C 7.910156 0.515625 6.097656 0.0625 4.296875 -0.84375 C 2.503906 -1.757812 1.609375 -3.316406 1.609375 -5.515625 C 1.609375 -8.054688 2.535156 -9.65625 4.390625 -10.3125 C 6.242188 -10.976562 8.160156 -11.3125 10.140625 -11.3125 C 10.640625 -11.3125 11.175781 -11.289062 11.75 -11.25 C 12.332031 -11.21875 12.921875 -11.203125 13.515625 -11.203125 C 15.390625 -11.203125 16.789062 -11.503906 17.71875 -12.109375 L 17.71875 -14.4375 C 17.71875 -18.101562 15.578125 -19.945312 11.296875 -19.96875 C 9.640625 -19.96875 8.191406 -19.554688 6.953125 -18.734375 C 5.578125 -17.785156 4.882812 -16.675781 4.875 -15.40625 C 4.875 -14.894531 4.429688 -14.640625 3.546875 -14.640625 C 2.679688 -14.640625 2.25 -14.894531 2.25 -15.40625 C 2.269531 -17.0625 3.164062 -18.488281 4.9375 -19.6875 C 6.65625 -20.882812 8.773438 -21.484375 11.296875 -21.484375 C 13.472656 -21.484375 15.523438 -20.9375 17.453125 -19.84375 C 19.390625 -18.757812 20.359375 -16.957031 20.359375 -14.4375 L 20.359375 -4.765625 C 20.359375 -2.734375 20.90625 -1.394531 22 -0.75 C 22.238281 -0.601562 22.359375 -0.429688 22.359375 -0.234375 C 22.359375 -0.0351562 22.222656 0.140625 21.953125 0.296875 C 21.660156 0.441406 21.351562 0.515625 21.03125 0.515625 Z M 9.734375 -1.015625 C 11.492188 -1.015625 13.265625 -1.585938 15.046875 -2.734375 C 16.828125 -3.890625 17.71875 -5.488281 17.71875 -7.53125 L 17.71875 -10.140625 C 16.488281 -9.867188 15.15625 -9.734375 13.71875 -9.734375 C 13.101562 -9.734375 12.476562 -9.742188 11.84375 -9.765625 C 11.21875 -9.796875 10.59375 -9.8125 9.96875 -9.8125 C 6.15625 -9.8125 4.25 -8.378906 4.25 -5.515625 C 4.25 -2.515625 6.078125 -1.015625 9.734375 -1.015625 Z M 9.734375 -1.015625 "/></g></g></g><g fill="#f77591" fill-opacity="1"><g transform="translate(201.547097, 171.360525)"><g><path d="M 5.90625 -0.46875 C 5.90625 0.207031 5.289062 0.546875 4.0625 0.546875 C 2.851562 0.546875 2.25 0.207031 2.25 -0.46875 L 2.25 -29.46875 C 2.25 -30.144531 2.851562 -30.484375 4.0625 -30.484375 L 22.953125 -30.484375 C 24.171875 -30.484375 24.78125 -30.144531 24.78125 -29.46875 C 24.78125 -28.78125 24.171875 -28.4375 22.953125 -28.4375 L 5.90625 -28.4375 L 5.90625 -16.109375 L 20.28125 -16.109375 C 21.507812 -16.109375 22.125 -15.769531 22.125 -15.09375 C 22.125 -14.40625 21.507812 -14.0625 20.28125 -14.0625 L 5.90625 -14.0625 Z M 5.90625 -0.46875 "/></g></g></g><g fill="#f77591" fill-opacity="1"><g transform="translate(230.340665, 171.360525)"><g><path d="M 16.234375 -31.015625 C 20.890625 -31.015625 24.570312 -29.492188 27.28125 -26.453125 C 30 -23.421875 31.359375 -19.6875 31.359375 -15.25 C 31.359375 -10.800781 30 -7.054688 27.28125 -4.015625 C 24.570312 -0.972656 20.890625 0.546875 16.234375 0.546875 C 11.578125 0.546875 7.894531 -0.972656 5.1875 -4.015625 C 2.476562 -7.054688 1.125 -10.800781 1.125 -15.25 C 1.125 -19.6875 2.476562 -23.421875 5.1875 -26.453125 C 7.894531 -29.492188 11.578125 -31.015625 16.234375 -31.015625 Z M 16.234375 -28.96875 C 12.460938 -28.96875 9.609375 -27.523438 7.671875 -24.640625 C 5.742188 -21.765625 4.78125 -18.632812 4.78125 -15.25 C 4.78125 -11.863281 5.742188 -8.722656 7.671875 -5.828125 C 9.609375 -2.941406 12.460938 -1.5 16.234375 -1.5 C 20.015625 -1.5 22.867188 -2.941406 24.796875 -5.828125 C 26.722656 -8.722656 27.6875 -11.863281 27.6875 -15.25 C 27.6875 -18.632812 26.722656 -21.765625 24.796875 -24.640625 C 22.867188 -27.523438 20.015625 -28.96875 16.234375 -28.96875 Z M 16.234375 -28.96875 "/></g></g></g><g fill="#f77591" fill-opacity="1"><g transform="translate(265.714723, 171.360525)"><g><path d="M 2.25 -30.015625 C 2.25 -30.679688 2.863281 -31.015625 4.09375 -31.015625 C 5.300781 -31.015625 5.90625 -30.679688 5.90625 -30.015625 L 5.90625 -2.046875 L 21.390625 -2.046875 C 22.609375 -2.046875 23.21875 -1.703125 23.21875 -1.015625 C 23.21875 -0.335938 22.609375 0 21.390625 0 L 4.09375 0 C 2.863281 0 2.25 -0.335938 2.25 -1.015625 Z M 2.25 -30.015625 "/></g></g></g><g fill="#f77591" fill-opacity="1"><g transform="translate(292.397143, 171.360525)"><g><path d="M 2.25 -30.015625 C 2.25 -30.679688 2.863281 -31.015625 4.09375 -31.015625 C 5.300781 -31.015625 5.90625 -30.679688 5.90625 -30.015625 L 5.90625 -2.046875 L 21.390625 -2.046875 C 22.609375 -2.046875 23.21875 -1.703125 23.21875 -1.015625 C 23.21875 -0.335938 22.609375 0 21.390625 0 L 4.09375 0 C 2.863281 0 2.25 -0.335938 2.25 -1.015625 Z M 2.25 -30.015625 "/></g></g></g><g fill="#f77591" fill-opacity="1"><g transform="translate(319.079562, 171.360525)"><g><path d="M 16.234375 -31.015625 C 20.890625 -31.015625 24.570312 -29.492188 27.28125 -26.453125 C 30 -23.421875 31.359375 -19.6875 31.359375 -15.25 C 31.359375 -10.800781 30 -7.054688 27.28125 -4.015625 C 24.570312 -0.972656 20.890625 0.546875 16.234375 0.546875 C 11.578125 0.546875 7.894531 -0.972656 5.1875 -4.015625 C 2.476562 -7.054688 1.125 -10.800781 1.125 -15.25 C 1.125 -19.6875 2.476562 -23.421875 5.1875 -26.453125 C 7.894531 -29.492188 11.578125 -31.015625 16.234375 -31.015625 Z M 16.234375 -28.96875 C 12.460938 -28.96875 9.609375 -27.523438 7.671875 -24.640625 C 5.742188 -21.765625 4.78125 -18.632812 4.78125 -15.25 C 4.78125 -11.863281 5.742188 -8.722656 7.671875 -5.828125 C 9.609375 -2.941406 12.460938 -1.5 16.234375 -1.5 C 20.015625 -1.5 22.867188 -2.941406 24.796875 -5.828125 C 26.722656 -8.722656 27.6875 -11.863281 27.6875 -15.25 C 27.6875 -18.632812 26.722656 -21.765625 24.796875 -24.640625 C 22.867188 -27.523438 20.015625 -28.96875 16.234375 -28.96875 Z M 16.234375 -28.96875 "/></g></g></g><g fill="#f77591" fill-opacity="1"><g transform="translate(354.453614, 171.360525)"><g><path d="M 31.40625 -0.296875 C 31.21875 0.265625 30.519531 0.546875 29.3125 0.546875 C 28.226562 0.546875 27.613281 0.265625 27.46875 -0.296875 L 21.0625 -25.015625 L 14.75 -0.3125 C 14.625 0.257812 13.960938 0.546875 12.765625 0.546875 C 11.648438 0.546875 11.007812 0.28125 10.84375 -0.25 L 0.625 -29.671875 C 0.582031 -29.804688 0.5625 -29.925781 0.5625 -30.03125 C 0.5625 -30.6875 1.207031 -31.015625 2.5 -31.015625 C 3.570312 -31.015625 4.207031 -30.734375 4.40625 -30.171875 L 13.203125 -4.6875 L 19.71875 -30.203125 C 19.851562 -30.742188 20.515625 -31.015625 21.703125 -31.015625 C 22.816406 -31.015625 23.453125 -30.722656 23.609375 -30.140625 L 30.203125 -4.6875 L 38.96875 -30.484375 C 39.101562 -30.835938 39.535156 -31.015625 40.265625 -31.015625 C 41.148438 -31.015625 41.59375 -30.820312 41.59375 -30.4375 C 41.59375 -30.332031 41.570312 -30.21875 41.53125 -30.09375 Z M 31.40625 -0.296875 "/></g></g></g><g fill="#f77591" fill-opacity="1"><g transform="translate(399.507514, 171.360525)"><g><path d="M 2.25 -29.46875 C 2.25 -30.144531 2.851562 -30.484375 4.0625 -30.484375 L 24.421875 -30.484375 C 25.628906 -30.484375 26.234375 -30.144531 26.234375 -29.46875 C 26.234375 -28.78125 25.628906 -28.4375 24.421875 -28.4375 L 5.90625 -28.4375 L 5.90625 -16.28125 L 21.75 -16.28125 C 22.96875 -16.28125 23.578125 -15.9375 23.578125 -15.25 C 23.578125 -14.5625 22.96875 -14.21875 21.75 -14.21875 L 5.90625 -14.21875 L 5.90625 -2.046875 L 24.421875 -2.046875 C 25.628906 -2.046875 26.234375 -1.703125 26.234375 -1.015625 C 26.234375 -0.335938 25.628906 0 24.421875 0 L 4.0625 0 C 2.851562 0 2.25 -0.335938 2.25 -1.015625 Z M 2.25 -29.46875 "/></g></g></g><g fill="#f77591" fill-opacity="1"><g transform="translate(430.3224, 171.360525)"><g><path d="M 4.0625 0.546875 C 2.851562 0.546875 2.25 0.195312 2.25 -0.5 L 2.25 -29.453125 C 2.25 -30.140625 2.851562 -30.484375 4.0625 -30.484375 L 17.96875 -30.484375 C 20.332031 -30.484375 22.5 -29.742188 24.46875 -28.265625 C 26.4375 -26.796875 27.421875 -24.796875 27.421875 -22.265625 C 27.421875 -20.078125 26.632812 -18.25 25.0625 -16.78125 C 23.488281 -15.320312 21.675781 -14.445312 19.625 -14.15625 C 20.53125 -13.40625 21.269531 -12.5 21.84375 -11.4375 C 22.414062 -10.375 22.957031 -9.257812 23.46875 -8.09375 C 24.082031 -6.726562 24.753906 -5.40625 25.484375 -4.125 C 26.222656 -2.84375 27.207031 -1.890625 28.4375 -1.265625 C 28.84375 -1.046875 29.046875 -0.789062 29.046875 -0.5 C 29.046875 -0.238281 28.890625 -0.0078125 28.578125 0.1875 C 28.210938 0.40625 27.757812 0.515625 27.21875 0.515625 C 26.726562 0.515625 26.328125 0.429688 26.015625 0.265625 C 24.347656 -0.566406 23.085938 -1.707031 22.234375 -3.15625 C 21.378906 -4.601562 20.609375 -6.085938 19.921875 -7.609375 C 19.203125 -9.234375 18.421875 -10.707031 17.578125 -12.03125 C 16.742188 -13.363281 15.539062 -14.03125 13.96875 -14.03125 L 5.90625 -14.03125 L 5.90625 -0.5 C 5.90625 0.195312 5.289062 0.546875 4.0625 0.546875 Z M 17.96875 -16.078125 C 21.832031 -16.078125 23.765625 -18.140625 23.765625 -22.265625 C 23.765625 -26.378906 21.832031 -28.4375 17.96875 -28.4375 L 5.90625 -28.4375 L 5.90625 -16.078125 Z M 17.96875 -16.078125 "/></g></g></g><g fill="#f77591" fill-opacity="1"><g transform="translate(463.383189, 171.360525)"><g/></g></g><g fill="#f77591" fill-opacity="1"><g transform="translate(477.511011, 171.360525)"><g><path d="M 15.59375 -0.734375 C 15.59375 -0.0664062 14.984375 0.265625 13.765625 0.265625 C 12.535156 0.265625 11.921875 -0.0664062 11.921875 -0.734375 L 11.921875 -28.703125 L 2.375 -28.703125 C 1.164062 -28.703125 0.5625 -29.046875 0.5625 -29.734375 C 0.5625 -30.410156 1.164062 -30.75 2.375 -30.75 L 25.140625 -30.75 C 26.347656 -30.75 26.953125 -30.410156 26.953125 -29.734375 C 26.953125 -29.046875 26.347656 -28.703125 25.140625 -28.703125 L 15.59375 -28.703125 Z M 15.59375 -0.734375 "/></g></g></g><g fill="#f77591" fill-opacity="1"><g transform="translate(507.921624, 171.360525)"><g><path d="M 4.78125 -0.46875 C 4.78125 0.207031 4.175781 0.546875 2.96875 0.546875 C 1.738281 0.546875 1.125 0.207031 1.125 -0.46875 L 1.125 -30.015625 C 1.125 -30.679688 1.738281 -31.015625 2.96875 -31.015625 C 4.175781 -31.015625 4.78125 -30.679688 4.78125 -30.015625 Z M 4.78125 -0.46875 "/></g></g></g><g fill="#f77591" fill-opacity="1"><g transform="translate(516.726662, 171.360525)"><g><path d="M 2.25 -29.46875 C 2.25 -30.144531 2.851562 -30.484375 4.0625 -30.484375 L 24.421875 -30.484375 C 25.628906 -30.484375 26.234375 -30.144531 26.234375 -29.46875 C 26.234375 -28.78125 25.628906 -28.4375 24.421875 -28.4375 L 5.90625 -28.4375 L 5.90625 -16.28125 L 21.75 -16.28125 C 22.96875 -16.28125 23.578125 -15.9375 23.578125 -15.25 C 23.578125 -14.5625 22.96875 -14.21875 21.75 -14.21875 L 5.90625 -14.21875 L 5.90625 -2.046875 L 24.421875 -2.046875 C 25.628906 -2.046875 26.234375 -1.703125 26.234375 -1.015625 C 26.234375 -0.335938 25.628906 0 24.421875 0 L 4.0625 0 C 2.851562 0 2.25 -0.335938 2.25 -1.015625 Z M 2.25 -29.46875 "/></g></g></g><g fill="#f77591" fill-opacity="1"><g transform="translate(547.541548, 171.360525)"><g><path d="M 4.0625 0.546875 C 2.851562 0.546875 2.25 0.195312 2.25 -0.5 L 2.25 -29.453125 C 2.25 -30.140625 2.851562 -30.484375 4.0625 -30.484375 L 17.96875 -30.484375 C 20.332031 -30.484375 22.5 -29.742188 24.46875 -28.265625 C 26.4375 -26.796875 27.421875 -24.796875 27.421875 -22.265625 C 27.421875 -20.078125 26.632812 -18.25 25.0625 -16.78125 C 23.488281 -15.320312 21.675781 -14.445312 19.625 -14.15625 C 20.53125 -13.40625 21.269531 -12.5 21.84375 -11.4375 C 22.414062 -10.375 22.957031 -9.257812 23.46875 -8.09375 C 24.082031 -6.726562 24.753906 -5.40625 25.484375 -4.125 C 26.222656 -2.84375 27.207031 -1.890625 28.4375 -1.265625 C 28.84375 -1.046875 29.046875 -0.789062 29.046875 -0.5 C 29.046875 -0.238281 28.890625 -0.0078125 28.578125 0.1875 C 28.210938 0.40625 27.757812 0.515625 27.21875 0.515625 C 26.726562 0.515625 26.328125 0.429688 26.015625 0.265625 C 24.347656 -0.566406 23.085938 -1.707031 22.234375 -3.15625 C 21.378906 -4.601562 20.609375 -6.085938 19.921875 -7.609375 C 19.203125 -9.234375 18.421875 -10.707031 17.578125 -12.03125 C 16.742188 -13.363281 15.539062 -14.03125 13.96875 -14.03125 L 5.90625 -14.03125 L 5.90625 -0.5 C 5.90625 0.195312 5.289062 0.546875 4.0625 0.546875 Z M 17.96875 -16.078125 C 21.832031 -16.078125 23.765625 -18.140625 23.765625 -22.265625 C 23.765625 -26.378906 21.832031 -28.4375 17.96875 -28.4375 L 5.90625 -28.4375 L 5.90625 -16.078125 Z M 17.96875 -16.078125 "/></g></g></g><g fill="#f77591" fill-opacity="1"><g transform="translate(580.602337, 171.360525)"><g><path d="M 26.734375 -8.765625 C 26.734375 -5.867188 25.394531 -3.59375 22.71875 -1.9375 C 20.039062 -0.28125 17.09375 0.546875 13.875 0.546875 C 11.164062 0.546875 8.507812 -0.09375 5.90625 -1.375 C 3.3125 -2.65625 1.75 -4.765625 1.21875 -7.703125 C 1.15625 -8.035156 1.125 -8.238281 1.125 -8.3125 C 1.125 -8.96875 1.753906 -9.296875 3.015625 -9.296875 C 4.023438 -9.296875 4.609375 -9.003906 4.765625 -8.421875 C 5.972656 -3.765625 9.0625 -1.457031 14.03125 -1.5 C 16.039062 -1.53125 18.046875 -2.140625 20.046875 -3.328125 C 22.054688 -4.523438 23.0625 -6.269531 23.0625 -8.5625 C 23.0625 -10.207031 22.066406 -11.492188 20.078125 -12.421875 C 18.609375 -13.109375 16.757812 -13.570312 14.53125 -13.8125 C 13.1875 -13.945312 11.769531 -14.164062 10.28125 -14.46875 C 8.789062 -14.78125 7.421875 -15.257812 6.171875 -15.90625 C 3.328125 -17.375 1.90625 -19.625 1.90625 -22.65625 C 1.90625 -25.6875 3.3125 -27.835938 6.125 -29.109375 C 8.945312 -30.378906 11.609375 -31.015625 14.109375 -31.015625 C 16.609375 -31.015625 18.988281 -30.4375 21.25 -29.28125 C 23.519531 -28.132812 25.015625 -26.28125 25.734375 -23.71875 C 25.828125 -23.40625 25.875 -23.210938 25.875 -23.140625 C 25.875 -22.523438 25.238281 -22.21875 23.96875 -22.21875 C 22.945312 -22.21875 22.363281 -22.515625 22.21875 -23.109375 C 21.3125 -27.015625 18.613281 -28.96875 14.125 -28.96875 C 12.238281 -28.96875 10.34375 -28.476562 8.4375 -27.5 C 6.53125 -26.519531 5.578125 -24.914062 5.578125 -22.6875 C 5.578125 -21.113281 6.675781 -19.84375 8.875 -18.875 C 9.894531 -18.4375 10.960938 -18.101562 12.078125 -17.875 C 13.203125 -17.65625 14.140625 -17.507812 14.890625 -17.4375 C 16.367188 -17.28125 17.875 -17.035156 19.40625 -16.703125 C 20.9375 -16.378906 22.285156 -15.84375 23.453125 -15.09375 C 25.640625 -13.65625 26.734375 -11.546875 26.734375 -8.765625 Z M 26.734375 -8.765625 "/></g></g></g><g clip-path="url(#89c4315ee2)"><g clip-path="url(#20085333e6)"><path fill="#cecece" d="M 126.417969 680.007812 L 156.039062 680.007812 L 156.039062 709.632812 L 126.417969 709.632812 Z M 126.417969 680.007812 " fill-opacity="1" fill-rule="nonzero"/></g></g><g fill="#737373" fill-opacity="1"><g transform="translate(163.372406, 699.326503)"><g><path d="M 1.65625 0 L 3.066406 0 L 3.066406 -8.890625 L 9.34375 0 L 10.671875 0 L 10.671875 -11.355469 L 9.277344 -11.355469 L 9.277344 -2.464844 L 3 -11.355469 L 1.65625 -11.355469 Z M 1.65625 0 "/></g></g></g><g fill="#737373" fill-opacity="1"><g transform="translate(175.698482, 699.326503)"><g><path d="M 4.265625 0.128906 C 5.628906 0.128906 6.699219 -0.308594 7.460938 -1.167969 L 7.609375 0 L 8.726562 0 L 8.726562 -5.351562 C 8.726562 -7.300781 7.25 -8.628906 5.042969 -8.628906 C 3.210938 -8.628906 1.832031 -7.640625 1.460938 -6.019531 L 2.839844 -6.019531 C 3.113281 -6.84375 3.972656 -7.363281 5.0625 -7.363281 C 6.488281 -7.363281 7.363281 -6.570312 7.363281 -5.253906 L 7.363281 -4.949219 L 3.925781 -4.949219 C 2.171875 -4.949219 1.023438 -3.957031 1.023438 -2.433594 C 1.023438 -0.84375 2.238281 0.128906 4.265625 0.128906 Z M 2.382812 -2.449219 C 2.382812 -3.242188 3.035156 -3.746094 3.972656 -3.746094 L 7.378906 -3.746094 C 7.332031 -2.191406 6.066406 -1.085938 4.316406 -1.085938 C 3.128906 -1.085938 2.382812 -1.621094 2.382812 -2.449219 Z M 2.382812 -2.449219 "/></g></g></g><g fill="#737373" fill-opacity="1"><g transform="translate(185.753969, 699.326503)"><g><path d="M 1.507812 0 L 2.871094 0 L 2.871094 -4.25 C 2.871094 -6.097656 3.992188 -7.332031 5.5625 -7.332031 C 7.039062 -7.332031 7.949219 -6.261719 7.949219 -4.558594 L 7.949219 0 L 9.3125 0 L 9.3125 -4.6875 C 9.3125 -7.089844 7.980469 -8.628906 5.742188 -8.628906 C 4.605469 -8.628906 3.503906 -8.191406 2.773438 -7.1875 L 2.628906 -8.417969 L 1.507812 -8.417969 Z M 1.507812 0 "/></g></g></g><g fill="#737373" fill-opacity="1"><g transform="translate(196.40954, 699.326503)"><g><path d="M 5.304688 0.210938 C 7.914062 0.210938 9.765625 -1.636719 9.765625 -4.21875 C 9.765625 -6.796875 7.914062 -8.628906 5.304688 -8.628906 C 2.691406 -8.628906 0.84375 -6.796875 0.84375 -4.21875 C 0.84375 -1.636719 2.691406 0.210938 5.304688 0.210938 Z M 2.207031 -4.21875 C 2.207031 -6.050781 3.488281 -7.332031 5.304688 -7.332031 C 7.121094 -7.332031 8.402344 -6.050781 8.402344 -4.21875 C 8.402344 -2.367188 7.121094 -1.101562 5.304688 -1.101562 C 3.488281 -1.101562 2.207031 -2.367188 2.207031 -4.21875 Z M 2.207031 -4.21875 "/></g></g></g><g fill="#737373" fill-opacity="1"><g transform="translate(164.965747, 509.385354)"><g><path d="M 3.5625 0 L 5.148438 0 L 5.148438 -12.601562 L 3.90625 -12.601562 L 3.707031 -11.683594 C 3.511719 -10.816406 3.148438 -10.566406 2.050781 -10.566406 L 0.664062 -10.566406 L 0.664062 -9.089844 L 3.5625 -9.089844 Z M 3.5625 0 "/></g></g></g><g fill="#737373" fill-opacity="1"><g transform="translate(171.949721, 509.385354)"><g><path d="M 1.835938 0 L 3.421875 0 L 3.421875 -5.671875 L 5.21875 -5.671875 C 5.707031 -5.671875 6.136719 -5.707031 6.535156 -5.777344 L 9.792969 0 L 11.628906 0 L 8.011719 -6.355469 C 8.730469 -6.820312 9.234375 -7.542969 9.59375 -8.496094 L 11.140625 -12.601562 L 9.46875 -12.601562 L 8.171875 -9.125 C 7.667969 -7.757812 6.929688 -7.183594 5.21875 -7.183594 L 3.421875 -7.183594 L 3.421875 -12.601562 L 1.835938 -12.601562 Z M 1.835938 0 "/></g></g></g><g fill="#737373" fill-opacity="1"><g transform="translate(184.261687, 509.385354)"><g><path d="M 1.386719 -3.851562 L 6.875 -3.851562 L 6.875 -5.273438 L 1.386719 -5.273438 Z M 1.386719 -3.851562 "/></g></g></g><g fill="#737373" fill-opacity="1"><g transform="translate(192.523657, 509.385354)"><g><path d="M 3.5625 0 L 5.148438 0 L 5.148438 -12.601562 L 3.90625 -12.601562 L 3.707031 -11.683594 C 3.511719 -10.816406 3.148438 -10.566406 2.050781 -10.566406 L 0.664062 -10.566406 L 0.664062 -9.089844 L 3.5625 -9.089844 Z M 3.5625 0 "/></g></g></g><g fill="#737373" fill-opacity="1"><g transform="translate(199.507631, 509.385354)"><g><path d="M 6.300781 0.234375 C 9.449219 0.234375 11.375 -2.269531 11.375 -6.300781 C 11.375 -10.332031 9.449219 -12.835938 6.300781 -12.835938 C 3.167969 -12.835938 1.207031 -10.332031 1.207031 -6.300781 C 1.207031 -2.269531 3.167969 0.234375 6.300781 0.234375 Z M 2.773438 -6.300781 C 2.773438 -9.394531 4.121094 -11.304688 6.300781 -11.304688 C 8.476562 -11.304688 9.808594 -9.394531 9.808594 -6.300781 C 9.808594 -3.203125 8.476562 -1.296875 6.300781 -1.296875 C 4.121094 -1.296875 2.773438 -3.203125 2.773438 -6.300781 Z M 2.773438 -6.300781 "/></g></g></g><g fill="#737373" fill-opacity="1"><g transform="translate(212.089597, 509.385354)"><g><path d="M 1.835938 0 L 3.421875 0 L 3.421875 -5.671875 L 5.21875 -5.671875 C 5.707031 -5.671875 6.136719 -5.707031 6.535156 -5.777344 L 9.792969 0 L 11.628906 0 L 8.011719 -6.355469 C 8.730469 -6.820312 9.234375 -7.542969 9.59375 -8.496094 L 11.140625 -12.601562 L 9.46875 -12.601562 L 8.171875 -9.125 C 7.667969 -7.757812 6.929688 -7.183594 5.21875 -7.183594 L 3.421875 -7.183594 L 3.421875 -12.601562 L 1.835938 -12.601562 Z M 1.835938 0 "/></g></g></g><g fill="#737373" fill-opacity="1"><g transform="translate(257.431954, 441.648046)"><g><path d="M 3.5625 0 L 5.148438 0 L 5.148438 -12.601562 L 3.90625 -12.601562 L 3.707031 -11.683594 C 3.511719 -10.816406 3.148438 -10.566406 2.050781 -10.566406 L 0.664062 -10.566406 L 0.664062 -9.089844 L 3.5625 -9.089844 Z M 3.5625 0 "/></g></g></g><g fill="#737373" fill-opacity="1"><g transform="translate(264.415928, 441.648046)"><g><path d="M 6.300781 0.234375 C 9.449219 0.234375 11.375 -2.269531 11.375 -6.300781 C 11.375 -10.332031 9.449219 -12.835938 6.300781 -12.835938 C 3.167969 -12.835938 1.207031 -10.332031 1.207031 -6.300781 C 1.207031 -2.269531 3.167969 0.234375 6.300781 0.234375 Z M 2.773438 -6.300781 C 2.773438 -9.394531 4.121094 -11.304688 6.300781 -11.304688 C 8.476562 -11.304688 9.808594 -9.394531 9.808594 -6.300781 C 9.808594 -3.203125 8.476562 -1.296875 6.300781 -1.296875 C 4.121094 -1.296875 2.773438 -3.203125 2.773438 -6.300781 Z M 2.773438 -6.300781 "/></g></g></g><g fill="#737373" fill-opacity="1"><g transform="translate(276.997894, 441.648046)"><g><path d="M 1.835938 0 L 3.421875 0 L 3.421875 -5.671875 L 5.21875 -5.671875 C 5.707031 -5.671875 6.136719 -5.707031 6.535156 -5.777344 L 9.792969 0 L 11.628906 0 L 8.011719 -6.355469 C 8.730469 -6.820312 9.234375 -7.542969 9.59375 -8.496094 L 11.140625 -12.601562 L 9.46875 -12.601562 L 8.171875 -9.125 C 7.667969 -7.757812 6.929688 -7.183594 5.21875 -7.183594 L 3.421875 -7.183594 L 3.421875 -12.601562 L 1.835938 -12.601562 Z M 1.835938 0 "/></g></g></g><g fill="#737373" fill-opacity="1"><g transform="translate(289.309859, 441.648046)"><g><path d="M 1.386719 -3.851562 L 6.875 -3.851562 L 6.875 -5.273438 L 1.386719 -5.273438 Z M 1.386719 -3.851562 "/></g></g></g><g fill="#737373" fill-opacity="1"><g transform="translate(297.571829, 441.648046)"><g><path d="M 5.453125 0.234375 C 8.046875 0.234375 9.773438 -1.386719 9.773438 -3.78125 C 9.773438 -6.15625 8.046875 -7.777344 5.472656 -7.777344 L 3.167969 -7.777344 L 3.4375 -11.125 L 9.199219 -11.125 L 9.199219 -12.601562 L 1.996094 -12.601562 L 1.511719 -6.316406 L 5.472656 -6.316406 C 7.109375 -6.316406 8.191406 -5.347656 8.191406 -3.816406 C 8.191406 -2.304688 7.128906 -1.296875 5.472656 -1.296875 C 3.90625 -1.296875 2.824219 -2.195312 2.734375 -3.636719 L 1.1875 -3.636719 C 1.296875 -1.277344 2.96875 0.234375 5.453125 0.234375 Z M 5.453125 0.234375 "/></g></g></g><g fill="#737373" fill-opacity="1"><g transform="translate(308.371801, 441.648046)"><g><path d="M 6.300781 0.234375 C 9.449219 0.234375 11.375 -2.269531 11.375 -6.300781 C 11.375 -10.332031 9.449219 -12.835938 6.300781 -12.835938 C 3.167969 -12.835938 1.207031 -10.332031 1.207031 -6.300781 C 1.207031 -2.269531 3.167969 0.234375 6.300781 0.234375 Z M 2.773438 -6.300781 C 2.773438 -9.394531 4.121094 -11.304688 6.300781 -11.304688 C 8.476562 -11.304688 9.808594 -9.394531 9.808594 -6.300781 C 9.808594 -3.203125 8.476562 -1.296875 6.300781 -1.296875 C 4.121094 -1.296875 2.773438 -3.203125 2.773438 -6.300781 Z M 2.773438 -6.300781 "/></g></g></g><g fill="#737373" fill-opacity="1"><g transform="translate(320.953767, 441.648046)"><g><path d="M 1.835938 0 L 3.421875 0 L 3.421875 -5.671875 L 5.21875 -5.671875 C 5.707031 -5.671875 6.136719 -5.707031 6.535156 -5.777344 L 9.792969 0 L 11.628906 0 L 8.011719 -6.355469 C 8.730469 -6.820312 9.234375 -7.542969 9.59375 -8.496094 L 11.140625 -12.601562 L 9.46875 -12.601562 L 8.171875 -9.125 C 7.667969 -7.757812 6.929688 -7.183594 5.21875 -7.183594 L 3.421875 -7.183594 L 3.421875 -12.601562 L 1.835938 -12.601562 Z M 1.835938 0 "/></g></g></g><g fill="#737373" fill-opacity="1"><g transform="translate(346.016206, 391.040098)"><g><path d="M 5.453125 0.234375 C 8.046875 0.234375 9.773438 -1.386719 9.773438 -3.78125 C 9.773438 -6.15625 8.046875 -7.777344 5.472656 -7.777344 L 3.167969 -7.777344 L 3.4375 -11.125 L 9.199219 -11.125 L 9.199219 -12.601562 L 1.996094 -12.601562 L 1.511719 -6.316406 L 5.472656 -6.316406 C 7.109375 -6.316406 8.191406 -5.347656 8.191406 -3.816406 C 8.191406 -2.304688 7.128906 -1.296875 5.472656 -1.296875 C 3.90625 -1.296875 2.824219 -2.195312 2.734375 -3.636719 L 1.1875 -3.636719 C 1.296875 -1.277344 2.96875 0.234375 5.453125 0.234375 Z M 5.453125 0.234375 "/></g></g></g><g fill="#737373" fill-opacity="1"><g transform="translate(356.816178, 391.040098)"><g><path d="M 6.300781 0.234375 C 9.449219 0.234375 11.375 -2.269531 11.375 -6.300781 C 11.375 -10.332031 9.449219 -12.835938 6.300781 -12.835938 C 3.167969 -12.835938 1.207031 -10.332031 1.207031 -6.300781 C 1.207031 -2.269531 3.167969 0.234375 6.300781 0.234375 Z M 2.773438 -6.300781 C 2.773438 -9.394531 4.121094 -11.304688 6.300781 -11.304688 C 8.476562 -11.304688 9.808594 -9.394531 9.808594 -6.300781 C 9.808594 -3.203125 8.476562 -1.296875 6.300781 -1.296875 C 4.121094 -1.296875 2.773438 -3.203125 2.773438 -6.300781 Z M 2.773438 -6.300781 "/></g></g></g><g fill="#737373" fill-opacity="1"><g transform="translate(369.398144, 391.040098)"><g><path d="M 1.835938 0 L 3.421875 0 L 3.421875 -5.671875 L 5.21875 -5.671875 C 5.707031 -5.671875 6.136719 -5.707031 6.535156 -5.777344 L 9.792969 0 L 11.628906 0 L 8.011719 -6.355469 C 8.730469 -6.820312 9.234375 -7.542969 9.59375 -8.496094 L 11.140625 -12.601562 L 9.46875 -12.601562 L 8.171875 -9.125 C 7.667969 -7.757812 6.929688 -7.183594 5.21875 -7.183594 L 3.421875 -7.183594 L 3.421875 -12.601562 L 1.835938 -12.601562 Z M 1.835938 0 "/></g></g></g><g fill="#737373" fill-opacity="1"><g transform="translate(381.710109, 391.040098)"><g><path d="M 1.386719 -3.851562 L 6.875 -3.851562 L 6.875 -5.273438 L 1.386719 -5.273438 Z M 1.386719 -3.851562 "/></g></g></g><g fill="#737373" fill-opacity="1"><g transform="translate(389.972079, 391.040098)"><g><path d="M 5.453125 0.234375 C 8.046875 0.234375 9.773438 -1.386719 9.773438 -3.78125 C 9.773438 -6.15625 8.046875 -7.777344 5.472656 -7.777344 L 3.167969 -7.777344 L 3.4375 -11.125 L 9.199219 -11.125 L 9.199219 -12.601562 L 1.996094 -12.601562 L 1.511719 -6.316406 L 5.472656 -6.316406 C 7.109375 -6.316406 8.191406 -5.347656 8.191406 -3.816406 C 8.191406 -2.304688 7.128906 -1.296875 5.472656 -1.296875 C 3.90625 -1.296875 2.824219 -2.195312 2.734375 -3.636719 L 1.1875 -3.636719 C 1.296875 -1.277344 2.96875 0.234375 5.453125 0.234375 Z M 5.453125 0.234375 "/></g></g></g><g fill="#737373" fill-opacity="1"><g transform="translate(400.772051, 391.040098)"><g><path d="M 6.300781 0.234375 C 9.449219 0.234375 11.375 -2.269531 11.375 -6.300781 C 11.375 -10.332031 9.449219 -12.835938 6.300781 -12.835938 C 3.167969 -12.835938 1.207031 -10.332031 1.207031 -6.300781 C 1.207031 -2.269531 3.167969 0.234375 6.300781 0.234375 Z M 2.773438 -6.300781 C 2.773438 -9.394531 4.121094 -11.304688 6.300781 -11.304688 C 8.476562 -11.304688 9.808594 -9.394531 9.808594 -6.300781 C 9.808594 -3.203125 8.476562 -1.296875 6.300781 -1.296875 C 4.121094 -1.296875 2.773438 -3.203125 2.773438 -6.300781 Z M 2.773438 -6.300781 "/></g></g></g><g fill="#737373" fill-opacity="1"><g transform="translate(413.354017, 391.040098)"><g><path d="M 6.300781 0.234375 C 9.449219 0.234375 11.375 -2.269531 11.375 -6.300781 C 11.375 -10.332031 9.449219 -12.835938 6.300781 -12.835938 C 3.167969 -12.835938 1.207031 -10.332031 1.207031 -6.300781 C 1.207031 -2.269531 3.167969 0.234375 6.300781 0.234375 Z M 2.773438 -6.300781 C 2.773438 -9.394531 4.121094 -11.304688 6.300781 -11.304688 C 8.476562 -11.304688 9.808594 -9.394531 9.808594 -6.300781 C 9.808594 -3.203125 8.476562 -1.296875 6.300781 -1.296875 C 4.121094 -1.296875 2.773438 -3.203125 2.773438 -6.300781 Z M 2.773438 -6.300781 "/></g></g></g><g fill="#737373" fill-opacity="1"><g transform="translate(425.935983, 391.040098)"><g><path d="M 1.835938 0 L 3.421875 0 L 3.421875 -5.671875 L 5.21875 -5.671875 C 5.707031 -5.671875 6.136719 -5.707031 6.535156 -5.777344 L 9.792969 0 L 11.628906 0 L 8.011719 -6.355469 C 8.730469 -6.820312 9.234375 -7.542969 9.59375 -8.496094 L 11.140625 -12.601562 L 9.46875 -12.601562 L 8.171875 -9.125 C 7.667969 -7.757812 6.929688 -7.183594 5.21875 -7.183594 L 3.421875 -7.183594 L 3.421875 -12.601562 L 1.835938 -12.601562 Z M 1.835938 0 "/></g></g></g><g fill="#737373" fill-opacity="1"><g transform="translate(441.995933, 326.926732)"><g><path d="M 5.453125 0.234375 C 8.046875 0.234375 9.773438 -1.386719 9.773438 -3.78125 C 9.773438 -6.15625 8.046875 -7.777344 5.472656 -7.777344 L 3.167969 -7.777344 L 3.4375 -11.125 L 9.199219 -11.125 L 9.199219 -12.601562 L 1.996094 -12.601562 L 1.511719 -6.316406 L 5.472656 -6.316406 C 7.109375 -6.316406 8.191406 -5.347656 8.191406 -3.816406 C 8.191406 -2.304688 7.128906 -1.296875 5.472656 -1.296875 C 3.90625 -1.296875 2.824219 -2.195312 2.734375 -3.636719 L 1.1875 -3.636719 C 1.296875 -1.277344 2.96875 0.234375 5.453125 0.234375 Z M 5.453125 0.234375 "/></g></g></g><g fill="#737373" fill-opacity="1"><g transform="translate(452.795905, 326.926732)"><g><path d="M 6.300781 0.234375 C 9.449219 0.234375 11.375 -2.269531 11.375 -6.300781 C 11.375 -10.332031 9.449219 -12.835938 6.300781 -12.835938 C 3.167969 -12.835938 1.207031 -10.332031 1.207031 -6.300781 C 1.207031 -2.269531 3.167969 0.234375 6.300781 0.234375 Z M 2.773438 -6.300781 C 2.773438 -9.394531 4.121094 -11.304688 6.300781 -11.304688 C 8.476562 -11.304688 9.808594 -9.394531 9.808594 -6.300781 C 9.808594 -3.203125 8.476562 -1.296875 6.300781 -1.296875 C 4.121094 -1.296875 2.773438 -3.203125 2.773438 -6.300781 Z M 2.773438 -6.300781 "/></g></g></g><g fill="#737373" fill-opacity="1"><g transform="translate(465.377871, 326.926732)"><g><path d="M 6.300781 0.234375 C 9.449219 0.234375 11.375 -2.269531 11.375 -6.300781 C 11.375 -10.332031 9.449219 -12.835938 6.300781 -12.835938 C 3.167969 -12.835938 1.207031 -10.332031 1.207031 -6.300781 C 1.207031 -2.269531 3.167969 0.234375 6.300781 0.234375 Z M 2.773438 -6.300781 C 2.773438 -9.394531 4.121094 -11.304688 6.300781 -11.304688 C 8.476562 -11.304688 9.808594 -9.394531 9.808594 -6.300781 C 9.808594 -3.203125 8.476562 -1.296875 6.300781 -1.296875 C 4.121094 -1.296875 2.773438 -3.203125 2.773438 -6.300781 Z M 2.773438 -6.300781 "/></g></g></g><g fill="#737373" fill-opacity="1"><g transform="translate(477.959837, 326.926732)"><g><path d="M 1.835938 0 L 3.421875 0 L 3.421875 -5.671875 L 5.21875 -5.671875 C 5.707031 -5.671875 6.136719 -5.707031 6.535156 -5.777344 L 9.792969 0 L 11.628906 0 L 8.011719 -6.355469 C 8.730469 -6.820312 9.234375 -7.542969 9.59375 -8.496094 L 11.140625 -12.601562 L 9.46875 -12.601562 L 8.171875 -9.125 C 7.667969 -7.757812 6.929688 -7.183594 5.21875 -7.183594 L 3.421875 -7.183594 L 3.421875 -12.601562 L 1.835938 -12.601562 Z M 1.835938 0 "/></g></g></g><g fill="#737373" fill-opacity="1"><g transform="translate(490.271802, 326.926732)"><g><path d="M 1.386719 -3.851562 L 6.875 -3.851562 L 6.875 -5.273438 L 1.386719 -5.273438 Z M 1.386719 -3.851562 "/></g></g></g><g fill="#737373" fill-opacity="1"><g transform="translate(498.533772, 326.926732)"><g><path d="M 3.5625 0 L 5.148438 0 L 5.148438 -12.601562 L 3.90625 -12.601562 L 3.707031 -11.683594 C 3.511719 -10.816406 3.148438 -10.566406 2.050781 -10.566406 L 0.664062 -10.566406 L 0.664062 -9.089844 L 3.5625 -9.089844 Z M 3.5625 0 "/></g></g></g><g fill="#737373" fill-opacity="1"><g transform="translate(505.517746, 326.926732)"><g><path d="M 1.835938 0 L 3.421875 0 L 3.421875 -9.648438 L 7.597656 -3.347656 L 8.890625 -3.347656 L 13.066406 -9.628906 L 13.066406 0 L 14.652344 0 L 14.652344 -12.601562 L 13.175781 -12.601562 L 8.261719 -5.128906 L 3.3125 -12.601562 L 1.835938 -12.601562 Z M 1.835938 0 "/></g></g></g><g fill="#737373" fill-opacity="1"><g transform="translate(545.391768, 261.714484)"><g><path d="M 3.5625 0 L 5.148438 0 L 5.148438 -12.601562 L 3.90625 -12.601562 L 3.707031 -11.683594 C 3.511719 -10.816406 3.148438 -10.566406 2.050781 -10.566406 L 0.664062 -10.566406 L 0.664062 -9.089844 L 3.5625 -9.089844 Z M 3.5625 0 "/></g></g></g><g fill="#737373" fill-opacity="1"><g transform="translate(552.375742, 261.714484)"><g><path d="M 1.835938 0 L 3.421875 0 L 3.421875 -9.648438 L 7.597656 -3.347656 L 8.890625 -3.347656 L 13.066406 -9.628906 L 13.066406 0 L 14.652344 0 L 14.652344 -12.601562 L 13.175781 -12.601562 L 8.261719 -5.128906 L 3.3125 -12.601562 L 1.835938 -12.601562 Z M 1.835938 0 "/></g></g></g><g fill="#737373" fill-opacity="1"><g transform="translate(568.86369, 261.714484)"><g><path d="M 1.601562 -5.238281 L 4.5 -5.238281 L 4.5 -2.285156 L 5.886719 -2.285156 L 5.886719 -5.238281 L 8.765625 -5.238281 L 8.765625 -6.625 L 5.886719 -6.625 L 5.886719 -9.558594 L 4.5 -9.558594 L 4.5 -6.625 L 1.601562 -6.625 Z M 1.601562 -5.238281 "/></g></g></g><g clip-path="url(#77e6cd3d3f)"><g clip-path="url(#656ee5bcab)"><path fill="#c4c6db" d="M 227.808594 680.007812 L 257.433594 680.007812 L 257.433594 709.632812 L 227.808594 709.632812 Z M 227.808594 680.007812 " fill-opacity="1" fill-rule="nonzero"/></g></g><g fill="#737373" fill-opacity="1"><g transform="translate(264.763877, 699.326503)"><g><path d="M 1.65625 0 L 3.082031 0 L 3.082031 -8.695312 L 6.84375 -3.015625 L 8.011719 -3.015625 L 11.777344 -8.679688 L 11.777344 0 L 13.203125 0 L 13.203125 -11.355469 L 11.875 -11.355469 L 7.445312 -4.621094 L 2.984375 -11.355469 L 1.65625 -11.355469 Z M 1.65625 0 "/></g></g></g><g fill="#737373" fill-opacity="1"><g transform="translate(279.620045, 699.326503)"><g><path d="M 1.507812 0 L 2.871094 0 L 2.871094 -8.417969 L 1.507812 -8.417969 Z M 1.085938 -10.867188 C 1.085938 -10.269531 1.523438 -9.8125 2.191406 -9.8125 C 2.855469 -9.8125 3.277344 -10.269531 3.277344 -10.867188 C 3.277344 -11.484375 2.855469 -11.9375 2.191406 -11.9375 C 1.523438 -11.9375 1.085938 -11.484375 1.085938 -10.867188 Z M 1.085938 -10.867188 "/></g></g></g><g fill="#737373" fill-opacity="1"><g transform="translate(283.999049, 699.326503)"><g><path d="M 5.175781 0.210938 C 7.28125 0.210938 8.921875 -1.054688 9.488281 -3.097656 L 8.046875 -3.097656 C 7.625 -1.882812 6.535156 -1.101562 5.175781 -1.101562 C 3.4375 -1.101562 2.207031 -2.382812 2.207031 -4.21875 C 2.207031 -6.035156 3.4375 -7.332031 5.175781 -7.332031 C 6.457031 -7.332031 7.511719 -6.632812 8.011719 -5.464844 L 9.390625 -5.464844 C 8.96875 -7.363281 7.265625 -8.628906 5.175781 -8.628906 C 2.644531 -8.628906 0.84375 -6.78125 0.84375 -4.21875 C 0.84375 -1.636719 2.644531 0.210938 5.175781 0.210938 Z M 5.175781 0.210938 "/></g></g></g><g fill="#737373" fill-opacity="1"><g transform="translate(294.281596, 699.326503)"><g><path d="M 1.507812 0 L 2.871094 0 L 2.871094 -3.910156 C 2.871094 -6.308594 4.070312 -7.152344 5.597656 -7.152344 L 6.421875 -7.152344 L 6.421875 -8.417969 L 5.660156 -8.417969 C 4.234375 -8.417969 3.390625 -7.964844 2.789062 -6.957031 L 2.628906 -8.417969 L 1.507812 -8.417969 Z M 1.507812 0 "/></g></g></g><g fill="#737373" fill-opacity="1"><g transform="translate(301.352878, 699.326503)"><g><path d="M 5.304688 0.210938 C 7.914062 0.210938 9.765625 -1.636719 9.765625 -4.21875 C 9.765625 -6.796875 7.914062 -8.628906 5.304688 -8.628906 C 2.691406 -8.628906 0.84375 -6.796875 0.84375 -4.21875 C 0.84375 -1.636719 2.691406 0.210938 5.304688 0.210938 Z M 2.207031 -4.21875 C 2.207031 -6.050781 3.488281 -7.332031 5.304688 -7.332031 C 7.121094 -7.332031 8.402344 -6.050781 8.402344 -4.21875 C 8.402344 -2.367188 7.121094 -1.101562 5.304688 -1.101562 C 3.488281 -1.101562 2.207031 -2.367188 2.207031 -4.21875 Z M 2.207031 -4.21875 "/></g></g></g><g fill="#737373" fill-opacity="1"><g transform="translate(375.470668, 699.326503)"><g><path d="M 1.65625 0 L 3.082031 0 L 3.082031 -8.695312 L 6.84375 -3.015625 L 8.011719 -3.015625 L 11.777344 -8.679688 L 11.777344 0 L 13.203125 0 L 13.203125 -11.355469 L 11.875 -11.355469 L 7.445312 -4.621094 L 2.984375 -11.355469 L 1.65625 -11.355469 Z M 1.65625 0 "/></g></g></g><g fill="#737373" fill-opacity="1"><g transform="translate(390.326836, 699.326503)"><g><path d="M 1.507812 0 L 2.871094 0 L 2.871094 -8.417969 L 1.507812 -8.417969 Z M 1.085938 -10.867188 C 1.085938 -10.269531 1.523438 -9.8125 2.191406 -9.8125 C 2.855469 -9.8125 3.277344 -10.269531 3.277344 -10.867188 C 3.277344 -11.484375 2.855469 -11.9375 2.191406 -11.9375 C 1.523438 -11.9375 1.085938 -11.484375 1.085938 -10.867188 Z M 1.085938 -10.867188 "/></g></g></g><g fill="#737373" fill-opacity="1"><g transform="translate(394.70584, 699.326503)"><g><path d="M 5.140625 0.210938 C 6.503906 0.210938 7.671875 -0.355469 8.433594 -1.296875 L 8.597656 0 L 9.714844 0 L 9.714844 -12.003906 L 8.355469 -12.003906 L 8.355469 -7.234375 C 7.589844 -8.109375 6.457031 -8.628906 5.140625 -8.628906 C 2.644531 -8.628906 0.84375 -6.765625 0.84375 -4.21875 C 0.84375 -1.65625 2.644531 0.210938 5.140625 0.210938 Z M 2.207031 -4.21875 C 2.207031 -6.035156 3.488281 -7.332031 5.304688 -7.332031 C 7.136719 -7.332031 8.402344 -6.035156 8.402344 -4.21875 C 8.402344 -2.382812 7.136719 -1.101562 5.304688 -1.101562 C 3.488281 -1.101562 2.207031 -2.382812 2.207031 -4.21875 Z M 2.207031 -4.21875 "/></g></g></g><g fill="#737373" fill-opacity="1"><g transform="translate(405.929064, 699.326503)"><g><path d="M 1.25 -3.472656 L 6.195312 -3.472656 L 6.195312 -4.753906 L 1.25 -4.753906 Z M 1.25 -3.472656 "/></g></g></g><g fill="#737373" fill-opacity="1"><g transform="translate(413.37337, 699.326503)"><g><path d="M 5.140625 0 L 6.40625 0 L 6.40625 -1.3125 L 5.207031 -1.3125 C 4.085938 -1.3125 3.570312 -1.882812 3.570312 -3.097656 L 3.570312 -7.167969 L 6.292969 -7.167969 L 6.292969 -8.417969 L 3.570312 -8.417969 L 3.570312 -10.511719 L 2.515625 -10.511719 L 2.382812 -9.375 C 2.285156 -8.613281 2.058594 -8.417969 1.28125 -8.417969 L 0.4375 -8.417969 L 0.4375 -7.167969 L 2.207031 -7.167969 L 2.207031 -3.035156 C 2.207031 -1.101562 3.277344 0 5.140625 0 Z M 5.140625 0 "/></g></g></g><g fill="#737373" fill-opacity="1"><g transform="translate(420.574393, 699.326503)"><g><path d="M 1.507812 0 L 2.871094 0 L 2.871094 -8.417969 L 1.507812 -8.417969 Z M 1.085938 -10.867188 C 1.085938 -10.269531 1.523438 -9.8125 2.191406 -9.8125 C 2.855469 -9.8125 3.277344 -10.269531 3.277344 -10.867188 C 3.277344 -11.484375 2.855469 -11.9375 2.191406 -11.9375 C 1.523438 -11.9375 1.085938 -11.484375 1.085938 -10.867188 Z M 1.085938 -10.867188 "/></g></g></g><g fill="#737373" fill-opacity="1"><g transform="translate(424.953397, 699.326503)"><g><path d="M 5.15625 0.210938 C 7.054688 0.210938 8.613281 -0.8125 9.292969 -2.449219 L 7.753906 -2.449219 C 7.234375 -1.558594 6.277344 -1.070312 5.175781 -1.070312 C 3.570312 -1.070312 2.433594 -2.078125 2.222656 -3.664062 L 9.503906 -3.664062 C 9.601562 -6.601562 7.867188 -8.628906 5.175781 -8.628906 C 2.628906 -8.628906 0.84375 -6.8125 0.84375 -4.21875 C 0.84375 -1.605469 2.613281 0.210938 5.15625 0.210938 Z M 2.238281 -4.867188 C 2.480469 -6.359375 3.617188 -7.347656 5.175781 -7.347656 C 6.714844 -7.347656 7.851562 -6.40625 8.144531 -4.867188 Z M 2.238281 -4.867188 "/></g></g></g><g fill="#737373" fill-opacity="1"><g transform="translate(435.268377, 699.326503)"><g><path d="M 1.507812 0 L 2.871094 0 L 2.871094 -3.910156 C 2.871094 -6.308594 4.070312 -7.152344 5.597656 -7.152344 L 6.421875 -7.152344 L 6.421875 -8.417969 L 5.660156 -8.417969 C 4.234375 -8.417969 3.390625 -7.964844 2.789062 -6.957031 L 2.628906 -8.417969 L 1.507812 -8.417969 Z M 1.507812 0 "/></g></g></g><g clip-path="url(#e03c1ee2c2)"><g clip-path="url(#664f7a3b9c)"><path fill="#fed271" d="M 338.515625 680.007812 L 368.140625 680.007812 L 368.140625 709.632812 L 338.515625 709.632812 Z M 338.515625 680.007812 " fill-opacity="1" fill-rule="nonzero"/></g></g><g fill="#737373" fill-opacity="1"><g transform="translate(501.025826, 699.326503)"><g><path d="M 1.65625 0 L 3.082031 0 L 3.082031 -8.695312 L 6.84375 -3.015625 L 8.011719 -3.015625 L 11.777344 -8.679688 L 11.777344 0 L 13.203125 0 L 13.203125 -11.355469 L 11.875 -11.355469 L 7.445312 -4.621094 L 2.984375 -11.355469 L 1.65625 -11.355469 Z M 1.65625 0 "/></g></g></g><g fill="#737373" fill-opacity="1"><g transform="translate(515.881995, 699.326503)"><g><path d="M 4.265625 0.128906 C 5.628906 0.128906 6.699219 -0.308594 7.460938 -1.167969 L 7.609375 0 L 8.726562 0 L 8.726562 -5.351562 C 8.726562 -7.300781 7.25 -8.628906 5.042969 -8.628906 C 3.210938 -8.628906 1.832031 -7.640625 1.460938 -6.019531 L 2.839844 -6.019531 C 3.113281 -6.84375 3.972656 -7.363281 5.0625 -7.363281 C 6.488281 -7.363281 7.363281 -6.570312 7.363281 -5.253906 L 7.363281 -4.949219 L 3.925781 -4.949219 C 2.171875 -4.949219 1.023438 -3.957031 1.023438 -2.433594 C 1.023438 -0.84375 2.238281 0.128906 4.265625 0.128906 Z M 2.382812 -2.449219 C 2.382812 -3.242188 3.035156 -3.746094 3.972656 -3.746094 L 7.378906 -3.746094 C 7.332031 -2.191406 6.066406 -1.085938 4.316406 -1.085938 C 3.128906 -1.085938 2.382812 -1.621094 2.382812 -2.449219 Z M 2.382812 -2.449219 "/></g></g></g><g fill="#737373" fill-opacity="1"><g transform="translate(525.937481, 699.326503)"><g><path d="M 5.175781 0.210938 C 7.28125 0.210938 8.921875 -1.054688 9.488281 -3.097656 L 8.046875 -3.097656 C 7.625 -1.882812 6.535156 -1.101562 5.175781 -1.101562 C 3.4375 -1.101562 2.207031 -2.382812 2.207031 -4.21875 C 2.207031 -6.035156 3.4375 -7.332031 5.175781 -7.332031 C 6.457031 -7.332031 7.511719 -6.632812 8.011719 -5.464844 L 9.390625 -5.464844 C 8.96875 -7.363281 7.265625 -8.628906 5.175781 -8.628906 C 2.644531 -8.628906 0.84375 -6.78125 0.84375 -4.21875 C 0.84375 -1.636719 2.644531 0.210938 5.175781 0.210938 Z M 5.175781 0.210938 "/></g></g></g><g fill="#737373" fill-opacity="1"><g transform="translate(536.220029, 699.326503)"><g><path d="M 1.507812 0 L 2.871094 0 L 2.871094 -3.910156 C 2.871094 -6.308594 4.070312 -7.152344 5.597656 -7.152344 L 6.421875 -7.152344 L 6.421875 -8.417969 L 5.660156 -8.417969 C 4.234375 -8.417969 3.390625 -7.964844 2.789062 -6.957031 L 2.628906 -8.417969 L 1.507812 -8.417969 Z M 1.507812 0 "/></g></g></g><g fill="#737373" fill-opacity="1"><g transform="translate(543.29131, 699.326503)"><g><path d="M 5.304688 0.210938 C 7.914062 0.210938 9.765625 -1.636719 9.765625 -4.21875 C 9.765625 -6.796875 7.914062 -8.628906 5.304688 -8.628906 C 2.691406 -8.628906 0.84375 -6.796875 0.84375 -4.21875 C 0.84375 -1.636719 2.691406 0.210938 5.304688 0.210938 Z M 2.207031 -4.21875 C 2.207031 -6.050781 3.488281 -7.332031 5.304688 -7.332031 C 7.121094 -7.332031 8.402344 -6.050781 8.402344 -4.21875 C 8.402344 -2.367188 7.121094 -1.101562 5.304688 -1.101562 C 3.488281 -1.101562 2.207031 -2.367188 2.207031 -4.21875 Z M 2.207031 -4.21875 "/></g></g></g><g clip-path="url(#a8cd08130d)"><g clip-path="url(#6709b83fad)"><path fill="#f77591" d="M 464.070312 680.007812 L 493.695312 680.007812 L 493.695312 709.632812 L 464.070312 709.632812 Z M 464.070312 680.007812 " fill-opacity="1" fill-rule="nonzero"/></g></g><g fill="#737373" fill-opacity="1"><g transform="translate(613.841037, 698.956095)"><g><path d="M 1.652344 0 L 3.082031 0 L 3.082031 -8.691406 L 6.84375 -3.015625 L 8.011719 -3.015625 L 11.773438 -8.675781 L 11.773438 0 L 13.199219 0 L 13.199219 -11.351562 L 11.871094 -11.351562 L 7.445312 -4.621094 L 2.984375 -11.351562 L 1.652344 -11.351562 Z M 1.652344 0 "/></g></g></g><g fill="#737373" fill-opacity="1"><g transform="translate(628.686347, 698.956095)"><g><path d="M 5.15625 0.210938 C 7.054688 0.210938 8.609375 -0.8125 9.292969 -2.449219 L 7.75 -2.449219 C 7.234375 -1.558594 6.277344 -1.070312 5.171875 -1.070312 C 3.566406 -1.070312 2.433594 -2.074219 2.222656 -3.664062 L 9.503906 -3.664062 C 9.601562 -6.601562 7.863281 -8.628906 5.171875 -8.628906 C 2.628906 -8.628906 0.84375 -6.8125 0.84375 -4.214844 C 0.84375 -1.605469 2.609375 0.210938 5.15625 0.210938 Z M 2.238281 -4.863281 C 2.480469 -6.355469 3.617188 -7.347656 5.171875 -7.347656 C 6.714844 -7.347656 7.847656 -6.40625 8.140625 -4.863281 Z M 2.238281 -4.863281 "/></g></g></g><g fill="#737373" fill-opacity="1"><g transform="translate(638.99379, 698.956095)"><g><path d="M 5.269531 3.453125 C 7.785156 3.453125 9.421875 1.898438 9.421875 -0.488281 L 9.421875 -8.417969 L 8.304688 -8.417969 L 8.15625 -7.28125 C 7.410156 -8.125 6.308594 -8.628906 5.042969 -8.628906 C 2.644531 -8.628906 0.84375 -6.8125 0.84375 -4.363281 C 0.84375 -1.898438 2.644531 -0.0820312 5.042969 -0.0820312 C 6.257812 -0.0820312 7.3125 -0.550781 8.058594 -1.328125 L 8.058594 -0.535156 C 8.058594 1.199219 7.039062 2.1875 5.269531 2.1875 C 3.890625 2.1875 2.933594 1.558594 2.675781 0.535156 L 1.296875 0.535156 C 1.605469 2.335938 3.128906 3.453125 5.269531 3.453125 Z M 2.207031 -4.363281 C 2.207031 -6.082031 3.453125 -7.3125 5.1875 -7.3125 C 6.941406 -7.3125 8.171875 -6.082031 8.171875 -4.363281 C 8.171875 -2.628906 6.941406 -1.410156 5.1875 -1.410156 C 3.453125 -1.410156 2.207031 -2.628906 2.207031 -4.363281 Z M 2.207031 -4.363281 "/></g></g></g><g fill="#737373" fill-opacity="1"><g transform="translate(649.917086, 698.956095)"><g><path d="M 4.265625 0.128906 C 5.628906 0.128906 6.699219 -0.308594 7.460938 -1.167969 L 7.605469 0 L 8.726562 0 L 8.726562 -5.351562 C 8.726562 -7.296875 7.25 -8.628906 5.042969 -8.628906 C 3.210938 -8.628906 1.832031 -7.636719 1.460938 -6.015625 L 2.839844 -6.015625 C 3.113281 -6.84375 3.972656 -7.363281 5.058594 -7.363281 C 6.488281 -7.363281 7.363281 -6.566406 7.363281 -5.253906 L 7.363281 -4.945312 L 3.925781 -4.945312 C 2.171875 -4.945312 1.023438 -3.957031 1.023438 -2.433594 C 1.023438 -0.84375 2.238281 0.128906 4.265625 0.128906 Z M 2.382812 -2.449219 C 2.382812 -3.242188 3.03125 -3.746094 3.972656 -3.746094 L 7.378906 -3.746094 C 7.328125 -2.1875 6.066406 -1.085938 4.3125 -1.085938 C 3.128906 -1.085938 2.382812 -1.621094 2.382812 -2.449219 Z M 2.382812 -2.449219 "/></g></g></g><g clip-path="url(#63bee3cc1c)"><g clip-path="url(#6cc7b0997d)"><path fill="#c991fa" d="M 576.886719 680.007812 L 606.507812 680.007812 L 606.507812 709.632812 L 576.886719 709.632812 Z M 576.886719 680.007812 " fill-opacity="1" fill-rule="nonzero"/></g></g></svg>