<svg xmlns="http://www.w3.org/2000/svg" version="1.1" xmlns:xlink="http://www.w3.org/1999/xlink" xmlns:svgjs="http://svgjs.dev/svgjs" width="1500" height="193" viewBox="0 0 1500 193"><g transform="matrix(1,0,0,1,-0.9090909090909918,0.3251202710997916)"><svg viewBox="0 0 396 51" data-background-color="#ffffff" preserveAspectRatio="xMidYMid meet" height="193" width="1500" xmlns="http://www.w3.org/2000/svg" xmlns:xlink="http://www.w3.org/1999/xlink"><g id="tight-bounds" transform="matrix(1,0,0,1,0.2400000000000091,-0.08591261049787136)"><svg viewBox="0 0 395.52 51.171825220995714" height="51.171825220995714" width="395.52"><g><svg viewBox="0 0 459.89409211573434 59.50045535476047" height="51.171825220995714" width="395.52"><g transform="matrix(1,0,0,1,0,1.047644293511226)"><svg viewBox="0 0 395.52 57.40516676773802" height="57.40516676773802" width="395.52"><g id="textblocktransform"><svg viewBox="0 0 395.52 57.40516676773802" height="57.40516676773802" width="395.52" id="textblock"><g><svg viewBox="0 0 395.52 57.40516676773802" height="57.40516676773802" width="395.52"><g transform="matrix(1,0,0,1,0,0)"><svg width="395.52" viewBox="3.85 -35.35 247.33 35.9" height="57.40516676773802" data-palette-color="#30017e"><path d="M16.15 0L16.15 0 3.85 0 3.85-33.7 14-33.7Q19.2-33.7 22.33-31.3 25.45-28.9 25.45-24.85L25.45-24.85Q25.45-21.95 23.83-19.83 22.2-17.7 19.65-17.15L19.65-17.15Q22.45-16.7 24.43-14.63 26.4-12.55 26.4-9L26.4-9Q26.4-4.95 23.73-2.48 21.05 0 16.15 0ZM14-30.25L14-30.25 7.9-30.25 7.9-18.75 13.3-18.75Q17.35-18.75 19.3-20.45 21.25-22.15 21.25-24.85L21.25-24.85Q21.25-27.2 19.43-28.73 17.6-30.25 14-30.25ZM14.8-15.3L14.8-15.3 7.9-15.3 7.9-3.45 15.55-3.45Q18.75-3.45 20.48-4.93 22.2-6.4 22.2-9.25 22.2-12.1 20.28-13.7 18.35-15.3 14.8-15.3ZM36.1-13.85L36.1 0 32.15 0 32.2-25.35 36.1-25.35 36.1-20.9Q38.1-25.6 43-25.6L43-25.6Q43.9-25.6 44.4-25.5L44.4-25.5 44.4-21.6Q43.35-21.95 42.25-21.95L42.25-21.95Q39.6-21.95 37.85-19.5 36.1-17.05 36.1-13.85L36.1-13.85ZM70.8-12.6L70.8-12.6Q70.8-6.95 67.59-3.25 64.39 0.45 58.8 0.45L58.8 0.45Q53.34 0.45 50.17-3.23 46.99-6.9 46.99-12.5L46.99-12.5Q46.99-18.15 50.27-21.93 53.55-25.7 58.8-25.7L58.8-25.7Q64.55-25.7 67.67-22 70.8-18.3 70.8-12.6ZM51.09-12.55L51.09-12.55Q51.09-8.6 53.2-5.83 55.3-3.05 58.8-3.05L58.8-3.05Q62.59-3.05 64.64-5.78 66.69-8.5 66.69-12.55L66.69-12.55Q66.69-16.75 64.75-19.48 62.8-22.2 58.8-22.2L58.8-22.2Q55.2-22.2 53.14-19.4 51.09-16.6 51.09-12.55ZM84.34-3.05L84.34-3.05Q87.04-3.05 88.64-4.58 90.24-6.1 90.24-8.45L90.24-8.45 90.24-11.7 85.84-11.7Q82.64-11.7 81.04-10.45 79.44-9.2 79.44-7.3 79.44-5.4 80.69-4.23 81.94-3.05 84.34-3.05ZM90.29 0L90.29-3Q88.34 0.25 83.19 0.25L83.19 0.25Q79.64 0.25 77.47-1.85 75.29-3.95 75.29-7.15L75.29-7.15Q75.29-10.8 78.07-12.83 80.84-14.85 85.64-14.85L85.64-14.85 90.24-14.85 90.24-16.15Q90.24-19.15 88.89-20.68 87.54-22.2 84.34-22.2L84.34-22.2Q80.29-22.2 77.14-20.05L77.14-20.05 77.14-24Q79.99-25.75 84.64-25.75L84.64-25.75Q94.19-25.75 94.19-16.05L94.19-16.05 94.19 0 90.29 0ZM103.79-12.4L103.79-12.4Q103.79-8.3 105.79-5.75 107.79-3.2 110.84-3.2L110.84-3.2Q113.94-3.2 116.11-5.5 118.29-7.8 118.29-12.85L118.29-12.85Q118.29-17.65 116.04-19.9 113.79-22.15 111.09-22.15L111.09-22.15Q107.94-22.15 105.86-19.63 103.79-17.1 103.79-12.4ZM122.24-35.35L122.24 0 118.29 0 118.29-3.75Q115.59 0.4 110.49 0.4L110.49 0.4Q105.44 0.4 102.56-3.35 99.69-7.1 99.69-12.45L99.69-12.45Q99.69-18.4 102.74-22.08 105.79-25.75 110.59-25.75L110.59-25.75Q115.54-25.75 118.29-21.5L118.29-21.5 118.29-35.35 122.24-35.35ZM138.44-30.2L138.44-30.2 133.79-30.2 133.79-16.75 138.89-16.75Q142.34-16.75 144.16-18.63 145.99-20.5 145.99-23.45L145.99-23.45Q145.99-30.2 138.44-30.2ZM139.04-13.3L138.64-13.3 133.79-13.3 133.79 0 129.74 0 129.74-33.7 138.19-33.7Q144.04-33.7 147.06-30.95 150.09-28.2 150.09-23.35L150.09-23.35Q149.99-19.85 148.24-17.4 146.49-14.95 143.29-13.95L143.29-13.95 152.14 0 147.29 0 139.04-13.3ZM175.44-5L175.44-1.3Q172.49 0.25 168.23 0.25L168.23 0.25Q162.48 0.25 158.96-3.28 155.44-6.8 155.44-12.6L155.44-12.6Q155.44-18.65 158.59-22.15 161.73-25.65 166.69-25.65L166.69-25.65Q171.44-25.65 174.24-22.6 177.03-19.55 177.03-13.95L177.03-13.95Q177.03-12.35 176.78-11L176.78-11 159.48-11Q159.94-7.25 162.34-5.25 164.73-3.25 168.63-3.25L168.63-3.25Q172.88-3.25 175.44-5L175.44-5ZM166.69-22.2L166.69-22.2Q163.84-22.2 161.84-20.15 159.84-18.1 159.48-14.3L159.48-14.3 173.09-14.3 173.09-15.3Q173.09-18.45 171.38-20.33 169.69-22.2 166.69-22.2ZM190.78-3.05L190.78-3.05Q193.48-3.05 195.08-4.58 196.68-6.1 196.68-8.45L196.68-8.45 196.68-11.7 192.28-11.7Q189.08-11.7 187.48-10.45 185.88-9.2 185.88-7.3 185.88-5.4 187.13-4.23 188.38-3.05 190.78-3.05ZM196.73 0L196.73-3Q194.78 0.25 189.63 0.25L189.63 0.25Q186.08 0.25 183.91-1.85 181.73-3.95 181.73-7.15L181.73-7.15Q181.73-10.8 184.51-12.83 187.28-14.85 192.08-14.85L192.08-14.85 196.68-14.85 196.68-16.15Q196.68-19.15 195.33-20.68 193.98-22.2 190.78-22.2L190.78-22.2Q186.73-22.2 183.58-20.05L183.58-20.05 183.58-24Q186.43-25.75 191.08-25.75L191.08-25.75Q200.63-25.75 200.63-16.05L200.63-16.05 200.63 0 196.73 0ZM225.08-4.65L225.08-0.9Q222.68 0.55 219.18 0.55L219.18 0.55Q213.18 0.55 209.66-3.28 206.13-7.1 206.13-12.6L206.13-12.6Q206.13-18 209.66-21.9 213.18-25.8 219.28-25.8L219.28-25.8Q222.53-25.8 225.08-24.4L225.08-24.4 225.08-20.65Q222.78-22.2 219.68-22.2L219.68-22.2Q215.38-22.2 212.8-19.43 210.23-16.65 210.23-12.55L210.23-12.55Q210.28-8.45 212.73-5.73 215.18-3 219.68-3L219.68-3Q222.58-3 225.08-4.65L225.08-4.65ZM251.18-17.35L251.18 0 247.23 0 247.23-16.4Q247.23-19.15 245.8-20.65 244.38-22.15 242.08-22.15L242.08-22.15Q239.28-22.15 237.18-20 235.08-17.85 235.08-13.85L235.08-13.85 235.08 0 231.18 0 231.18-35.35 235.08-35.35 235.08-20.95Q237.33-25.7 243.08-25.7L243.08-25.7Q246.73-25.7 248.95-23.45 251.18-21.2 251.18-17.35L251.18-17.35Z" opacity="1" transform="matrix(1,0,0,1,0,0)" fill="#30017e" class="wordmark-text-0" data-fill-palette-color="primary" id="text-0"></path></svg></g></svg></g></svg></g></svg></g><g transform="matrix(1,0,0,1,409.0719821498605,0)"><svg viewBox="0 0 50.82210996587381 59.50045535476047" height="59.50045535476047" width="50.82210996587381"><g><svg xmlns="http://www.w3.org/2000/svg" xmlns:xlink="http://www.w3.org/1999/xlink" version="1.1" x="0" y="0" viewBox="10.122 3.520732257273576 79.72576425273537 93.33967597428298" enable-background="new 0 0 100 100" xml:space="preserve" height="59.50045535476047" width="50.82210996587381" class="icon-icon-0" data-fill-palette-color="accent" id="icon-0"><g fill="#b931fc" data-fill-palette-color="accent"><path d="M88.566 12.101c-2.051-5.613-5.838-9.389-8.459-8.432-0.209 0.076-0.404 0.185-0.588 0.315V3.982L53.006 23.395h0.002c-0.594 0.423-0.857 1.202-0.598 1.918 0.262 0.716 0.965 1.14 1.689 1.083l0.012 0.034 32.609-2.281c0.281-0.006 0.557-0.051 0.814-0.146C90.156 23.045 90.619 17.717 88.566 12.101zM86.627 22.374c-1.855 0.679-4.738-2.55-6.441-7.21-1.701-4.658-1.578-8.986 0.277-9.664 1.855-0.679 4.74 2.549 6.443 7.208C88.607 17.368 88.484 21.695 86.627 22.374z" fill="#b931fc" data-fill-palette-color="accent"></path><path d="M66.33 29.133c0-0.811-0.809-1.467-1.809-1.467-0.9 0-1.645 0.538-1.779 1.239l-1.656 7.062-9.83-4.062L33.247 33.1 10.522 55.778l0.001 0.003c-0.25 0.252-0.401 0.572-0.401 0.919 0 0.81 0.809 1.467 1.807 1.467 0.493 0 0.941-0.162 1.267-0.424l0.003 0.002 20.049-15.481 2.634 13.37h-0.001l-8.11 39.554c0 0-0.433 1.351 1.221 1.638 1.457 0.255 1.968-0.991 1.968-0.991l12.891-29.678h0.004 0.002l12.892 29.678c0 0 0.51 1.246 1.969 0.991 1.652-0.287 1.219-1.638 1.219-1.638l-8.107-39.543 2.646-15.16 8.805 2.868c0 0 1.463 0.658 2.314-0.989 0.816-1.583 0.742-12.324 0.734-13.189C66.326 29.159 66.33 29.146 66.33 29.133z" fill="#b931fc" data-fill-palette-color="accent"></path><path d="M42.303 30.554c3.731 0.013 6.77-3.003 6.781-6.735 0.014-3.732-3.002-6.769-6.734-6.782-3.732-0.012-6.768 3.004-6.78 6.736C35.556 27.504 38.572 30.54 42.303 30.554zM45.362 25.689c0.829-0.537 1.756-0.579 2.071-0.091 0.314 0.488-0.102 1.316-0.928 1.854-0.828 0.537-1.755 0.579-2.07 0.092C44.118 27.058 44.534 26.227 45.362 25.689z" fill="#b931fc" data-fill-palette-color="accent"></path></g></svg></g></svg></g></svg></g><defs></defs></svg><rect width="395.52" height="51.171825220995714" fill="none" stroke="none" visibility="hidden"></rect></g></svg></g></svg>