<?xml version="1.0"?>
<svg version="1.1" xmlns="http://www.w3.org/2000/svg" width="120" height="60" style=""><path fill="#ff5e00" d="M24.469,35.746c0,2.754-2.227,3.434-4.641,3.434l-3.162,0c-0.357,0-0.442-0.136-0.442-0.493l0-10.829c0-0.357,0.153-0.442,0.51-0.442l2.55,0c2.737,0,4.267,0.833,4.267,2.873c0,1.19-0.68,2.227-1.921,2.499l0,0.017c1.615,0.119,2.839,1.224,2.839,2.941z M21.409,30.544c0-1.105-0.867-1.462-2.057-1.462l-0.952,0l0,3.162l0.884,0c1.241,0,2.125-0.323,2.125-1.7z M22.242,35.678c0-0.799-0.357-1.309-0.901-1.581c-0.527-0.255-1.105-0.306-1.819-0.306l-1.122,0l0,3.706l1.258,0c0.595,0,1.173-0.051,1.598-0.221c0.595-0.255,0.986-0.782,0.986-1.598z M37.2275,33.961c0,3.502-1.649,5.423-4.964,5.423c-3.587,0-4.896-1.972-4.896-5.457l0-6.103c0-0.289,0.17-0.408,0.442-0.408l1.343,0c0.289,0,0.408,0.119,0.408,0.408l0,5.916c0,2.499,0.646,3.791,2.788,3.791c2.057,0,2.703-1.36,2.703-3.791l0-5.916c0-0.289,0.153-0.408,0.425-0.408l1.343,0c0.289,0,0.408,0.119,0.408,0.408l0,6.137z M48.881,38.772c0,0.255-0.119,0.408-0.374,0.408l-8.279,0c-0.221,0-0.323-0.153-0.323-0.357l0-0.527c0-0.204,0.034-0.34,0.17-0.544l5.627-8.551l0-0.017l-4.981,0c-0.306,0-0.425-0.102-0.425-0.391l0-1.037c0-0.221,0.102-0.34,0.34-0.34l7.599,0c0.306,0,0.408,0.153,0.408,0.374l0,0.408c0,0.255-0.034,0.476-0.204,0.731l-5.593,8.466l0,0.017l5.644,0c0.255,0,0.391,0.119,0.391,0.391l0,0.969z M59.8375,38.772c0,0.255-0.119,0.408-0.374,0.408l-8.279,0c-0.221,0-0.323-0.153-0.323-0.357l0-0.527c0-0.204,0.034-0.34,0.17-0.544l5.627-8.551l0-0.017l-4.981,0c-0.306,0-0.425-0.102-0.425-0.391l0-1.037c0-0.221,0.102-0.34,0.34-0.34l7.599,0c0.306,0,0.408,0.153,0.408,0.374l0,0.408c0,0.255-0.034,0.476-0.204,0.731l-5.593,8.466l0,0.017l5.644,0c0.255,0,0.391,0.119,0.391,0.391l0,0.969z M70.998,38.976c0,0.136-0.102,0.204-0.255,0.204l-1.547,0c-0.306,0-0.51-0.085-0.663-0.34l-2.448-3.995l-1.309,0l0,3.91c0,0.255-0.102,0.425-0.391,0.425l-1.394,0c-0.289,0-0.408-0.136-0.408-0.425l0-10.846c0-0.374,0.085-0.493,0.459-0.493l2.516,0c1.479,0,3.043,0.221,3.944,1.258c0.544,0.629,0.816,1.462,0.816,2.38c0,1.564-0.833,2.788-2.193,3.383l2.788,4.301c0.051,0.085,0.085,0.17,0.085,0.238z M68.091,31.088c0-1.479-0.986-2.006-2.465-2.006l-0.85,0l0,4.114l1.054,0c1.36,0,2.261-0.731,2.261-2.108z M80.8325,38.772c0,0.272-0.119,0.408-0.408,0.408l-6.307,0c-0.34,0-0.459-0.085-0.459-0.459l0-10.88c0-0.272,0.119-0.425,0.391-0.425l6.409,0c0.272,0,0.357,0.102,0.357,0.289l0,0.102l-0.119,1.02c-0.034,0.306-0.221,0.357-0.578,0.357l-4.267,0l0,3.077l3.927,0c0.323,0,0.425,0.136,0.425,0.374l0,0.969c0,0.289-0.119,0.408-0.408,0.408l-3.944,0l0,3.4l4.556,0c0.289,0,0.425,0.119,0.425,0.391l0,0.969z M93.37,38.908c0,0.17-0.085,0.272-0.306,0.272l-1.513,0c-0.357,0-0.476-0.136-0.578-0.408l-0.884-2.499l-4.301,0l-0.884,2.55c-0.068,0.221-0.187,0.357-0.459,0.357l-1.513,0c-0.17,0-0.238-0.085-0.238-0.221c0-0.051,0-0.119,0.034-0.187l4.148-11.016c0.085-0.204,0.204-0.34,0.459-0.34l1.36,0c0.255,0,0.408,0.119,0.476,0.306l4.165,10.965c0.034,0.085,0.034,0.153,0.034,0.221z M89.511,34.624l-1.207-3.587c-0.153-0.476-0.255-0.833-0.34-1.105l-0.034,0c-0.085,0.289-0.187,0.646-0.357,1.122l-1.207,3.57l3.145,0z M104.2585,38.347c0,0.153-0.068,0.255-0.272,0.34c-1.122,0.459-2.142,0.697-3.383,0.697c-3.587,0-5.338-2.533-5.338-6.035c0-3.485,2.091-6.154,5.508-6.154c1.173,0,2.227,0.238,3.196,0.714c0.204,0.102,0.272,0.187,0.272,0.289c0,0.068-0.017,0.136-0.051,0.221l-0.391,1.071c-0.051,0.153-0.136,0.221-0.238,0.221c-0.051,0-0.119-0.034-0.187-0.068c-0.85-0.442-1.615-0.612-2.465-0.612c-2.363,0-3.281,2.176-3.281,4.233c0,2.618,1.224,4.284,3.315,4.284c0.816,0,1.649-0.187,2.448-0.544c0.085-0.034,0.153-0.068,0.204-0.068c0.119,0,0.204,0.085,0.272,0.255l0.34,0.918c0.034,0.085,0.051,0.17,0.051,0.238z M116.065,38.755c0,0.306-0.119,0.425-0.408,0.425l-1.343,0c-0.306,0-0.442-0.119-0.442-0.425l0-4.743l-4.828,0l0,4.743c0,0.306-0.136,0.425-0.425,0.425l-1.326,0c-0.306,0-0.459-0.119-0.459-0.425l0-10.931c0-0.289,0.187-0.408,0.459-0.408l1.326,0c0.272,0,0.425,0.102,0.425,0.408l0,4.437l4.828,0l0-4.437c0-0.289,0.17-0.408,0.442-0.408l1.343,0c0.272,0,0.408,0.102,0.408,0.408l0,10.931z"/><path fill="#" d=""/></svg>
